<svg width="96" height="96" fill="none" xmlns="http://www.w3.org/2000/svg"><path d="M63.276 35.61a1.305 1.305 0 0 1-.592-.75.113.113 0 0 1 .04-.12.112.112 0 0 1 .125-.008c.172.09.352.173.54.255.771.41 1.59.725 2.437.938.564.125 1.14.19 1.718.195.187-.003.373-.026.555-.068.087-.013.172-.036.255-.067.206-.082.403-.188.585-.315a.998.998 0 0 1 .937-.165.754.754 0 0 1 .18.105l.12.12.105.187c.025.087.045.174.06.263 0 .375 0 .75-.052 1.162l-.068.653c-.037.3-.09.598-.157.892-.248 1.073-.458 2.01-.675 3a3.232 3.232 0 0 0-.12.518 2.51 2.51 0 0 1-.105.382c0 .105-.083.218-.143.353a1.38 1.38 0 0 1-.135.24.909.909 0 0 1-.262.292.965.965 0 0 1-.248.128l.263-.158a.876.876 0 0 1-.293.18.748.748 0 0 1-.217.038.75.75 0 0 1-.383-.083.433.433 0 0 1-.15-.097l-.097-.075-.06-.105a.753.753 0 0 1-.098-.21 1.81 1.81 0 0 1-.067-.33v-1.988c.027-.374.002-.75-.075-1.117-.06-.173 0-.15-.09-.21s-.068-.053-.195 0c-.082.04-.167.073-.255.097-.24.067-.455.2-.623.383-.272.264-.557.515-.855.75-.159.1-.324.19-.495.27-.15.075-.165-.045-.142-.105.022-.06-.053-.098-.098-.113-.045-.015 0 0-.045 0 .167-.355.395-.678.675-.952a6.12 6.12 0 0 1 .953-.99c.184-.146.392-.258.615-.33.29-.11.61-.11.9 0 .338.142.608.411.75.75.178.435.287.896.322 1.365.045.375.053.645.06.75.016.192.016.385 0 .577v.39a2.801 2.801 0 0 0 0 .353v.142c0 .03-.12 0-.24.045l-.187-.052a.211.211 0 0 0-.098 0c-.075.067-.067.052-.075.067a.165.165 0 0 0-.097-.142l.127.067a.24.24 0 0 0-.082-.127.852.852 0 0 0-.188-.18.825.825 0 0 1-.127-.098l.06-.15c0-.127.082-.255.112-.382l.12-.458c.15-.48.225-.982.428-1.5a1.84 1.84 0 0 0 .075-.292c.157-.848.345-1.778.457-2.558a.3.3 0 0 0 0-.082v-.068h-.045a1.208 1.208 0 0 1-.15.068l-.472.112a5.55 5.55 0 0 1-.93.045 7.772 7.772 0 0 1-1.733-.33 10.393 10.393 0 0 1-1.635-.817c-.202-.053-.592-.465-.72-.54Zm5.605-4.485a2.107 2.107 0 0 1-2.88-.203c-1.702-1.777.57-4.867 2.768-2.482a1.928 1.928 0 0 1 .112 2.685ZM20.038 63.907a147.024 147.024 0 0 0 3.413-17.25c.285-2.123.465-4.26.667-6.39.345-3.75.54-7.5.525-11.318a68.71 68.71 0 0 0-.9-11.25 27.372 27.372 0 0 0-1.245-4.837 12.752 12.752 0 0 0-1.027-2.19 4.868 4.868 0 0 0-1.5-1.635 2.047 2.047 0 0 0-2.37.202 6.187 6.187 0 0 0-1.763 2.303c-.45.931-.812 1.903-1.08 2.902a24.02 24.02 0 0 0-.682 3.06c-.143 1.268-.428 1.148-.705 0a10.665 10.665 0 0 1 .645-5.902 9.57 9.57 0 0 1 1.935-3.128 5.04 5.04 0 0 1 1.747-1.185 3.577 3.577 0 0 1 2.31-.067c.694.235 1.318.64 1.815 1.177.439.453.821.957 1.14 1.5a16.697 16.697 0 0 1 1.395 3.24 37.547 37.547 0 0 1 1.388 6.645c.28 2.233.448 4.478.502 6.728.151 5.45-.027 10.906-.532 16.335a147.36 147.36 0 0 1-2.933 17.73 165.498 165.498 0 0 1-2.857 10.672c-.81 2.67-1.695 5.325-2.663 7.943a19.094 19.094 0 0 0-1.065 3.885 5.175 5.175 0 0 0 .75 3.585 3.705 3.705 0 0 0 2.213 1.552c.93.214 1.9.167 2.805-.135 1.852-.51 3.217-2.047 4.245-3.75.439-.775.83-1.576 1.17-2.4.66-1.552 1.02-2.632 1.357-3.36a3.645 3.645 0 0 1 .96-1.417c.143-.138.298-.26.465-.368.443-.21.375 1.23-.36 3.75a21.398 21.398 0 0 1-2.43 5.498 10.5 10.5 0 0 1-2.175 2.467 8.248 8.248 0 0 1-3.082 1.56c-1.174.3-2.404.3-3.578 0a6 6 0 0 1-1.732-.81 6.073 6.073 0 0 1-1.373-1.365 6.75 6.75 0 0 1-1.185-3.517 10.84 10.84 0 0 1 .45-3.368c.405-1.545.983-2.955 1.455-4.327.473-1.373.96-2.798 1.403-4.208.9-2.82 1.71-5.677 2.437-8.55l.045-.007Z" fill="#fff"/><path d="M68.188 5.61a21.9 21.9 0 0 1 4.695.06c1.646.208 3.226.777 4.628 1.665.684.46 1.317.99 1.89 1.582.142.15.285.293.42.45l.382.51.383.518c.105.18.195.367.292.547a14.253 14.253 0 0 1 1.455 4.5c.358 2.191.516 4.41.473 6.63a96.853 96.853 0 0 1-1.058 11.483c-.532 3.75-1.177 7.5-1.837 11.25a393.52 393.52 0 0 0-1.65 9.96c-.33 2.115-.615 4.245-.855 6.367a76.692 76.692 0 0 0-.293 3.173 24.586 24.586 0 0 0-.105 3.142c.128 1.253-.157 1.208-.667.105a13.386 13.386 0 0 1-.675-5.812c.375-4.44 1.065-8.783 1.815-13.118.75-4.335 1.5-8.655 2.25-12.997a81.918 81.918 0 0 0 1.147-15.983c-.15-2.872-.525-5.85-1.897-8.175l-.585-.787a8.842 8.842 0 0 0-.75-.75 8.497 8.497 0 0 0-1.643-1.193 9.48 9.48 0 0 0-3.93-1.14 28.425 28.425 0 0 0-5.332.18l-5.46.593C55.783 9 50.248 9.525 44.676 9.697c-4.28.19-8.57.035-12.825-.465-.938-.097-1.853-.285-2.798-.457-3.48-.75-4.5-1.395-5.017-2.138a3.153 3.153 0 0 1-.338-.517c-.075-.255.248-.345.893-.293.645.053 1.575.308 2.805.533 7.215 1.597 15.112 1.575 23.01.997 5.895-.435 11.76-1.192 17.775-1.8l.007.053Zm-4.895 68.385-8.13.75c-.982.097-1.972.24-3 .33a289.01 289.01 0 0 1-10.5.75c-1.56 0-3.127.105-4.672.12h-3c-1.005 0-1.988-.21-3-.353-.615-.097-.525-.18 0-.322.525-.143 1.5-.405 2.625-.578 4.012-.135 7.987-.517 12.052-.63 2.423-.097 4.935-.465 7.41-.75l8.183-.855 5.04-.51c2.535-.27 5.092-.517 7.612-.832a22.167 22.167 0 0 1 6.045-.24c.462.06.919.158 1.365.292 1.688.6 2.048 1.17 2.04 1.763.012.137.012.275 0 .412-.135.405-.81.24-1.777-.12-2.903-1.095-6.42-.352-10.14 0l-8.145.818-.008-.045Zm3.605 14.415c-3 .09-6 .052-8.94.112l-3.248.09c-3.817.045-7.627.09-11.422.368l-2.55.21-2.543.135c-2.129.055-4.252.26-6.352.615-.63.135-.653-.158-.18-.6a5.318 5.318 0 0 1 2.79-1.14c2.25-.293 4.5-.323 6.622-.458 2.123-.135 4.433-.345 6.66-.39 2.67-.052 5.438-.24 8.16-.322l9-.233c1.83-.052 3.66-.142 5.475-.315a41.243 41.243 0 0 0 4.088-.585l1.005-.217a7.083 7.083 0 0 0 2.61-1.245 8.61 8.61 0 0 0 3-5.003c.112-.42.142-.84.217-1.275.195-1.605.255-2.13.668-2.535.08-.101.17-.194.27-.277.157-.105.315 0 .472.33.101.201.181.412.24.63.069.299.119.602.15.907a9.818 9.818 0 0 1-1.59 6.135 9.21 9.21 0 0 1-5.422 4.02 47.943 47.943 0 0 1-9.15 1.08l-.03-.037Z" fill="#fff"/><path d="M45.284 21.667c-1.035 0-2.078-.045-3.112-.037l-1.133.045c-1.335 0-2.67 0-3.99.127-.586.042-1.17.115-1.748.218-.367.075-.75.135-1.087.232-.18 0-.36.083-.54.113-.18.03-.337.097-.517.135-.18.037-.285-.128-.173-.375a1.455 1.455 0 0 1 .855-.75 15.751 15.751 0 0 1 4.68-.75c.945 0 1.913-.15 2.873-.21.96-.06 2.1-.083 3.15-.113h1.942c.983 0 1.965 0 2.94-.045.75 0 1.5-.15 2.25-.187h.487c.615 0 .818.12.945.442 0 .068.068.143.09.21a.337.337 0 0 1-.134.323.99.99 0 0 1-.51.255c-.671.144-1.35.249-2.033.315-.69.052-1.387.075-2.093.09l-3.135.037-.007-.075ZM44.31 36.96c-.914-.068-1.83-.15-2.744-.195h-.998c-1.177-.06-2.355-.12-3.532-.105a15.4 15.4 0 0 0-1.56.09c-.66.067-1.313.172-1.98.18-.21 0-.218-.195-.075-.413.198-.28.49-.48.825-.562a15.148 15.148 0 0 1 4.147-.353c.833.045 1.688-.045 2.535-.045.848 0 1.868 0 2.79.045l1.718.075c.862 0 1.732.09 2.595.083.66 0 1.32-.09 1.98-.105h.427c.54 0 .705.127.825.457 0 .068.06.143.075.21a.36.36 0 0 1-.12.323.893.893 0 0 1-.457.247 13.25 13.25 0 0 1-1.815.263h-1.86l-2.775-.098v-.097Zm-.202-8.363c-.75 0-1.5-.06-2.198-.06h-3.615c-.416.01-.832.042-1.245.098a9.355 9.355 0 0 1-1.59.142c-.165 0-.18-.187-.067-.405a1.035 1.035 0 0 1 .637-.54 11.531 11.531 0 0 1 3.278-.412c.667 0 1.35-.105 2.025-.143.675-.037 1.5-.06 2.25-.075h3.435c.532 0 1.057-.15 1.582-.187.115-.008.23-.008.345 0 .435 0 .57.112.668.435 0 .067.052.142.067.21a.405.405 0 0 1-.09.322.63.63 0 0 1-.352.255c-.465.15-.941.261-1.425.33a19.19 19.19 0 0 1-1.5.09h-2.205v-.06Zm-2.295 14.828-1.365-.09h-.495c-.592 0-1.177-.068-1.762-.075-.25-.014-.5-.014-.75 0a4.28 4.28 0 0 1-.983.067c-.105 0-.12-.172-.06-.352a.666.666 0 0 1 .39-.435 5.623 5.623 0 0 1 2.055-.24c.419.006.837-.014 1.253-.06h3.517c.42 0 .653-.135.975-.173.07-.007.14-.007.21 0 .27-.037.36.083.435.353 0 .067 0 .12.045.18a.487.487 0 0 1-.255.51 3.756 3.756 0 0 1-.885.3 7.42 7.42 0 0 1-.915.082h-1.38l-.03-.067ZM68.428 27.75a1.552 1.552 0 0 0-1.5-.315 2.016 2.016 0 0 0-.54.3 1.897 1.897 0 0 0-.75 2.047c.11.342.342.63.653.81.42.196.864.337 1.32.42.142.045.165.375 0 .698a.885.885 0 0 1-.968.51 3.135 3.135 0 0 1-1.882-1.298 2.842 2.842 0 0 1-.345-2.25c.202-.88.74-1.648 1.5-2.137a2.94 2.94 0 0 1 2.775-.128 3 3 0 0 1 1.222 1.163c.418.738.529 1.61.308 2.43a2.73 2.73 0 0 1-1.523 1.875c-.54.195-.75.09-.87-.24 0-.075-.06-.15-.082-.225a.592.592 0 0 1 .345-.608 1.725 1.725 0 0 0 .975-1.65 1.89 1.89 0 0 0-.653-1.402h.015Z" fill="#fff"/><path d="M69.291 23.692a5.467 5.467 0 0 0-5.25.75 6.584 6.584 0 0 0-1.402 1.5 6.21 6.21 0 0 0-1.095 3.45v.465l.06.458a5.67 5.67 0 0 0 1.05 2.55 5.288 5.288 0 0 0 2.737 1.822 9.187 9.187 0 0 0 4.26.06c.435-.075.548.323.263.825a2.504 2.504 0 0 1-2.078 1.178 8.085 8.085 0 0 1-5.152-1.59A6.563 6.563 0 0 1 60.876 33a5.927 5.927 0 0 1-.51-1.29l-.18-.653c0-.225-.052-.457-.082-.682a8.154 8.154 0 0 1 1.822-6.09 7.14 7.14 0 0 1 10.26-.69 8.068 8.068 0 0 1 2.663 5.692 6.75 6.75 0 0 1-1.575 4.673 6.13 6.13 0 0 1-.795.795c-1.133.855-1.658.847-2.055.577a1.61 1.61 0 0 1-.27-.21c-.225-.285.172-.667.825-1.155a5.572 5.572 0 0 0 1.98-6.405 6.27 6.27 0 0 0-3.683-3.862l.015-.008Z" fill="#fff"/><path d="M66.165 39.187a.885.885 0 0 1 .69 0c.15.107.28.239.383.39.123.233.197.488.218.75l.15 1.283c.06.6.127 1.207.232 1.755a.839.839 0 0 0 .128.352c0 .038.082.098.12.06a.918.918 0 0 0 .165-.277c0-.045.172-.548.27-.9.202-.75.382-1.545.54-2.333.157-.787.3-1.56.42-2.34.108-1.018.317-2.023.622-3 .12-.315.315-.202.48.105.22.433.315.919.278 1.403a37.735 37.735 0 0 1-1.17 6.157c-.136.488-.27.968-.413 1.455-.053.173-.12.345-.18.518-.06.155-.133.306-.218.45a2.251 2.251 0 0 1-.524.615.646.646 0 0 1-.338 0 .984.984 0 0 1-.315-.12 1.455 1.455 0 0 1-.472-.503 2.945 2.945 0 0 1-.308-.75c0-.142-.075-.277-.105-.42l-.067-.337c-.06-.368-.106-.75-.143-1.073l-.112-1.057a4.573 4.573 0 0 0-.06-.51.473.473 0 0 0-.053-.165c-.067-.09-.157 0-.21.045a1.49 1.49 0 0 0-.188.187l-.09.098-.127.15-.338.442-.93 1.208a4.556 4.556 0 0 1-1.237 1.2.796.796 0 0 1-.51.142c-.24-.067-.27-.27-.322-.42a4.437 4.437 0 0 1 0-1.822l.12-.9.09-.75.06-.638c.09-.75.164-.967.465-1.162.06-.045.12-.105.18-.143.172-.15.525.24.555.908.037.454.037.91 0 1.365l-.076.667-.037.33v.075c0 .038.053 0 .053 0l.067-.082.323-.413.675-.84.3-.36c.105-.135.217-.247.33-.375.195-.207.43-.373.69-.487l-.06.067Zm-6.794 34.095-6.367.622-2.325.255c-2.73.255-5.476.458-8.25.6l-3.653.158c-.75 0-1.56.06-2.34.06-.78 0-1.56-.09-2.333-.15-.48-.045-.42-.098 0-.195.42-.098 1.163-.285 2.048-.413 3.15-.165 6.285-.465 9.465-.592 1.905-.098 3.877-.36 5.813-.57l6.412-.698c1.32-.135 2.617-.27 3.915-.487l5.918-.998c1.5-.262 3-.555 4.56-.75l1.012-.112c1.275-.098 1.688 0 1.958.307.066.065.126.135.18.21.12.24-.39.45-1.29.548-2.67.307-5.475.75-8.318 1.252-2.107.353-4.245.75-6.42.968l.015-.015Zm-36.123-39.21c0-3.292-.12-6.585-.398-9.855-.105-1.192-.277-2.377-.427-3.562a39.625 39.625 0 0 0-1.208-6.135 9.64 9.64 0 0 0-1.207-2.7 1.785 1.785 0 0 0-.885-.705 1.44 1.44 0 0 0-1.028.3 4.14 4.14 0 0 0-1.312 2.085 15.627 15.627 0 0 0-.563 2.67c-.037.292-.075.585-.105.877v.488h.87c1.24.01 2.475.155 3.683.435.802.247.517.6-.158.855a8.107 8.107 0 0 1-3.165.487l-1.02-.037c-.307 0-.622 0-.915-.06a1.684 1.684 0 0 1-.405-.09l-.127-.113-.083-.15-.097-.112v-.038c-.263.218-.075.06-.135.105v-.09l-.068-.367a3.28 3.28 0 0 1-.112-.75l.09-.825.067-.473c.155-1.31.47-2.598.938-3.832a5.81 5.81 0 0 1 1.17-1.89 3.495 3.495 0 0 1 1.035-.75c.2-.1.411-.176.63-.225a2.445 2.445 0 0 1 2.1.427c.322.246.606.54.84.87a8.44 8.44 0 0 1 .9 1.838 32.1 32.1 0 0 1 1.23 4.5c.315 1.5.562 3.045.75 4.567.382 3.345.562 6.698.637 10.05.045 2.063 0 4.133 0 6.188-.052 3.127-.232 6.255-.457 9.352-.18 2.4-.338 4.763-.683 7.148-.075.517-.142 1.035-.247 1.56-.39 1.95-.75 2.542-1.245 2.82a1.93 1.93 0 0 1-.36.172c-.383.068-.368-.75-.128-2.122.661-4.294 1.094-8.62 1.298-12.96.172-3.3.262-6.63.225-9.945l.075-.008Zm-5.144 51.18a3.33 3.33 0 0 0 2.535.998c.178.001.355-.024.525-.075a3.77 3.77 0 0 0 .518-.15 6.308 6.308 0 0 0 3.18-2.498c.377-.532.716-1.09 1.012-1.672.359-.781.801-1.52 1.32-2.205.173-.21.345-.06.435.247.119.412.103.85-.045 1.253a17.76 17.76 0 0 1-1.185 2.355 9.835 9.835 0 0 1-1.71 2.19 6.549 6.549 0 0 1-3.037 1.845 4.755 4.755 0 0 1-5.453-2.49 6.074 6.074 0 0 1-.532-3.443c.066-.867.227-1.725.48-2.557.052-.18.105-.353.165-.533.262-.645.457-.81.675-.892l.142-.053c.15 0 .173.293.135.81a17.449 17.449 0 0 0-.315 4.343c.065.477.19.943.375 1.387.198.418.47.796.803 1.118l-.023.022ZM46.05 89.01c-1.126 0-2.25.082-3.376.157l-1.222.105c-1.448.098-2.903.165-4.343.293-.645.052-1.282.15-1.912.247-.405.068-.803.165-1.215.21-.413.045-.818.06-1.23.06-.263 0-.263-.202-.083-.45.246-.345.591-.607.99-.75a28.358 28.358 0 0 1 5.04-.585c1.02 0 2.063-.202 3.098-.285 1.035-.082 2.25-.165 3.42-.232l2.107-.03 3.188-.128c.825 0 1.635-.165 2.46-.172h.547c.18 0 .315 0 .435.052.104.03.203.076.293.135a.6.6 0 0 1 .277.33c.028.055.05.113.068.173 0 .165-.27.3-.75.405a32.135 32.135 0 0 1-4.418.352l-3.39.158.015-.045Z" fill="#fff"/><path d="M18.914 56.685c.555-3 1.02-6.068 1.328-9.128.105-1.125.202-2.25.285-3.36.352-3.945.547-7.912.57-11.88 0-1.762-.06-3.532-.15-5.25-.128-2.25-.278-4.5-.338-6.75 0-.697.24-.63.555-.06.458.918.745 1.912.848 2.933.127 1.155.225 2.302.315 3.457.09 1.155.09 2.318.12 3.473.03 1.155 0 2.317 0 3.48 0 1.162-.09 2.325-.128 3.495-.105 1.387-.142 2.812-.21 4.237-.067 1.425-.142 2.865-.292 4.283-.315 3.12-.713 6.24-1.275 9.322l-.518 2.813-.637 2.82c-.285 1.432-.698 2.835-1.08 4.245-.203.705-.36 1.417-.593 2.107-.232.69-.465 1.403-.667 2.078-.33 1.08-.645 2.145-1.05 3.187-.405 1.043-.75 2.093-1.148 3.135l-.6 1.35c-.825 1.643-1.155 2.138-1.5 2.4a2.89 2.89 0 0 1-.232.18c-.195.09 0-.645.442-1.897a132.445 132.445 0 0 0 3.878-11.61c.367-1.5.795-3 1.125-4.5.33-1.5.682-3 .93-4.56h.022Z" fill="#fff"/></svg>