<svg width="96" height="96" fill="none" xmlns="http://www.w3.org/2000/svg"><path d="M7.245 21.75a30.578 30.578 0 0 1 12.75-10.777 24.443 24.443 0 0 1 5.887-1.778 30.06 30.06 0 0 1 20.686 3.87 27.75 27.75 0 0 1 7.184 6.158 22.567 22.567 0 0 1 5.123 10.89c.225 1.245-.315 1.14-1.035.24a9.973 9.973 0 0 1-1.133-1.853 17.236 17.236 0 0 1-1.304-2.633 24.751 24.751 0 0 0-6.908-9 28.629 28.629 0 0 0-10.245-5.325 14.34 14.34 0 0 0-1.718-.412c-.577-.098-1.154-.27-1.747-.315a24.968 24.968 0 0 0-3.592-.202 29.079 29.079 0 0 0-7.148.944c-1.27.332-2.51.774-3.705 1.32a18.57 18.57 0 0 0-1.747.923l-.87.487-.833.548a28.128 28.128 0 0 0-6 5.25 31.139 31.139 0 0 0-2.865 3.982A30.752 30.752 0 0 0 6 28.5a27.533 27.533 0 0 0-1.343 14.655A25.5 25.5 0 0 0 9.262 53.43c.233.337.495.653.75.968.255.314.518.637.803.944 2.063 2.303 2.805 2.94 3 3.803.055.186.093.377.113.57 0 .262-.316.24-.856 0a8.996 8.996 0 0 1-.99-.593c-.367-.277-.75-.622-1.23-1.027A26.249 26.249 0 0 1 4.5 49.08a29.016 29.016 0 0 1-1.695-5.445 30.51 30.51 0 0 1-.555-5.73 29.91 29.91 0 0 1 1.305-8.445A31.26 31.26 0 0 1 7.2 21.75h.045Zm19.948 45.472a17.888 17.888 0 0 1-5.445 3.278c-.7.303-1.416.569-2.145.795-.562.18-1.14.307-1.71.442l-.862.18-.435.075-.54.098c-.915.15-1.808.27-2.61.322-.803.053-1.853.225-1.86-.06.412-.472.885-1.012 1.252-1.5l.533-.66.345-.6c.118-.185.218-.381.3-.585l.157-.375c.183-.508.328-1.03.435-1.56.293-1.365.308-2.782.548-4.185.067-.427.57-.39 1.065 0a2.43 2.43 0 0 1 .847 2.063 16.71 16.71 0 0 1-.75 3.585c-.105.292-.21.592-.337.877l-.173.383c-.07.05-.138.106-.202.165l-.113.097v.045c0 .045.053.053.113.083a.797.797 0 0 0 .337 0h.278l.33-.068.652-.15c.863-.217 1.718-.495 2.558-.75a18.653 18.653 0 0 0 5.16-2.602c.24-.169.469-.354.682-.555.218-.203.458-.383.653-.593l.75-.862.232-.263s0-.045.06-.052h.24l.645.127.788.143c.232 0 .457.082.69.112.457.075.915.128 1.372.18.901.112 1.808.17 2.715.173a20.83 20.83 0 0 0 4.163-.615l.892-.233c1.11-.27 1.5-.255 1.868.188.093.092.179.193.255.3.225.352-.15.825-.998 1.147a20.137 20.137 0 0 1-8.25 1.095 26.195 26.195 0 0 1-3.142-.36l-.36-.06H28.1c-.045 0-.128-.037-.113 0l-.135.158a4.491 4.491 0 0 1-.592.6l-.068-.023Z" fill="#FF6702"/><path d="M61.434 35.108a26.889 26.889 0 0 0-5.25 2.182 26.25 26.25 0 0 0-4.628 3.33A23.433 23.433 0 0 0 47.86 45a23.79 23.79 0 0 0-3.833 13.32 22.636 22.636 0 0 0 16.988 21.713c2.151.546 4.366.798 6.585.75.555 0 1.11 0 1.657-.075.548-.075 1.11-.068 1.658-.173l.825-.127.63-.098.322-.045h.158c.045 0 .075.075.112.113l.75.847c.178.188.372.361.578.518a11.588 11.588 0 0 0 5.092 2.25c.941.181 1.894.3 2.85.352H83.5l-.038-.06a4.62 4.62 0 0 1-.292-.45l-.128-.247-.135-.27c-.06-.113-.105-.225-.157-.33a9.917 9.917 0 0 1-.81-2.813c-.098-.862 0-1.29.195-1.357.195-.068.367.217.63.75.262.532.615 1.23 1.125 2.032.127.203.262.405.412.623l.225.322.12.165.218.323c.6.9 1.567 2.04 2.445 3.202-.225.045-.555.075-.863.113l-.937.105c-.33 0-.66.067-1.005.082h-2.738c-.39-.037-.75-.06-1.177-.12-.789-.094-1.57-.24-2.34-.435a13.883 13.883 0 0 1-4.5-1.95 8.243 8.243 0 0 1-1.005-.75 4.191 4.191 0 0 1-.465-.427l-.218-.24-1.08.15c-.75.097-1.545.135-2.317.195-.773.06-1.545 0-2.325 0a26.248 26.248 0 0 1-9.09-1.98 24.05 24.05 0 0 1-7.725-5.183 26.548 26.548 0 0 1-3.503-4.545 26.138 26.138 0 0 1-2.482-5.107 24.75 24.75 0 0 1-1.268-11.25c.26-2.053.764-4.067 1.5-6a24.002 24.002 0 0 1 2.873-5.513 26.27 26.27 0 0 1 1.912-2.452 29.028 29.028 0 0 1 2.25-2.168 25.444 25.444 0 0 1 5.115-3.51 26.798 26.798 0 0 1 14.73-3c.957.077 1.91.21 2.85.398.474.088.942.203 1.403.345.465.135.937.225 1.387.397.912.316 1.804.686 2.67 1.11.435.21.87.413 1.298.638l1.23.75.615.375.585.427 1.155.855 1.08.945c.365.309.71.64 1.035.99l.99 1.02c.315.36.6.75.9 1.118a24.751 24.751 0 0 1 4.86 10.5c.565 2.901.583 5.882.052 8.79a22.055 22.055 0 0 1-1.027 3.75 17.246 17.246 0 0 1-2.43 4.552 4.702 4.702 0 0 1-1.748 1.545 4.116 4.116 0 0 1-.697.293c-.3 0-.195-.36.195-1.103.39-.742 1.05-1.867 1.785-3.345a22.222 22.222 0 0 0 1.86-14.505 22.59 22.59 0 0 0-7.725-12.75 22.008 22.008 0 0 0-4.778-3.052 23 23 0 0 0-2.632-1.043c-.45-.142-.915-.247-1.373-.375l-.69-.21c-.232-.052-.472-.082-.705-.127a24.436 24.436 0 0 0-11.347.615l-.015-.045Z" fill="#8B5FCF"/><path d="M69.315 46.687a1.319 1.319 0 0 0-1.935.293c-.053 3.885 2.947 10.08 4.5 13.642.802-.12.75-.637.75-1.297-.053-2.46-2.655-12.075-3.315-12.638Zm-7.949 2.235a1.388 1.388 0 0 0-1.913.413c.54 3.682 3.593 9.87 5.355 13.328.795-.165.75-.683.668-1.343-.225-2.453-3.368-11.962-4.11-12.398Z" fill="#8B5FCF"/><path d="M35.354 34.778a5.648 5.648 0 0 0 1.628-3.855 5.14 5.14 0 0 0-.233-1.56c-.435-1.77-2.4-3-4.447-2.798-.91.06-1.791.343-2.565.825a6.592 6.592 0 0 0-2.31 2.535c-.188.315-.42.21-.533-.202a2.25 2.25 0 0 1 .39-1.853 6.69 6.69 0 0 1 7.845-2.325 6.27 6.27 0 0 1 2.25 1.545 5.476 5.476 0 0 1 1.268 2.445 7.943 7.943 0 0 1-.885 5.64 7.959 7.959 0 0 1-2.513 2.475c-1.425.945-2.955 1.553-4.2 2.445-.47.322-.889.711-1.245 1.155a6.52 6.52 0 0 0-.795 1.433c-.112.247-.202.502-.345.75-.532.93-.885 1.117-1.5.967a2.292 2.292 0 0 1-.405-.105c-.42-.187-.48-.75-.24-1.395.18-.502.338-.997.593-1.552a6.284 6.284 0 0 1 1.117-1.733 12.419 12.419 0 0 1 3.12-2.31c1.56-.87 3-1.567 3.938-2.572l.067.045ZM26.428 48.81v.142a1.29 1.29 0 0 1-1.747.93 1.41 1.41 0 0 1-.683-2.385c1.043-1.147 2.618-.052 2.43 1.313Z" fill="#FF6702"/><path d="M68.056 65.828c.053.75-.367 1.402-1.612 1.23a1.41 1.41 0 0 1-.886-2.295c1.103-1.508 2.408-.12 2.498 1.065Zm6.778-2.198c0 .75-.54 1.342-1.755 1.02a1.41 1.41 0 0 1-.593-2.4c1.275-1.35 2.408.188 2.348 1.38Z" fill="#8B5FCF"/><path d="M56.026 79.972a23.581 23.581 0 0 0 7.102 2.288c.905.128 1.817.201 2.73.217h1.215c.405 0 .803 0 1.208-.052l1.215-.068c.405 0 .802-.112 1.2-.165l1.38-.202c.187-.09.262.127.39.225l.277.292.405.428c.285.27.608.502.908.75.3.247.667.427 1.005.645a12.468 12.468 0 0 0 4.027 1.32c1.815.242 3.65.297 5.475.165.555 0 .533.225.075.54a4.756 4.756 0 0 1-2.497.622 16.87 16.87 0 0 1-5.82-.99 11.653 11.653 0 0 1-2.678-1.387 13.116 13.116 0 0 1-1.162-.975l-.518-.563v-.045h-.067c-2.341.392-4.717.53-7.088.413a24.886 24.886 0 0 1-7.62-1.86c-.375-.165-.75-.315-1.11-.48l-1.065-.578c-.712-.376-1.399-.8-2.055-1.267a24.632 24.632 0 0 1-5.25-5.01 26.706 26.706 0 0 1-2.955-4.733c-.18-.367-.352-.75-.532-1.11-.533-1.44-.608-1.935-.458-2.317a1 1 0 0 1 .105-.255c.15-.188.51.337.915 1.35a26.159 26.159 0 0 0 5.325 8.325 21.592 21.592 0 0 0 6 4.455l-.082.022Z" fill="#471F84"/><path d="m28.718 67.11-.472-.09h-.053l-.667.69c-.548.485-1.13.931-1.74 1.335-.435.301-.886.58-1.35.832a24.84 24.84 0 0 1-5.153 1.928c-.787.202-1.567.412-2.355.592-.998.281-2.024.45-3.06.503-.645 0 .075-1.028 1.185-1.223a51.969 51.969 0 0 0 6-1.387 15.753 15.753 0 0 0 3.413-1.56c.302-.162.593-.345.87-.547.293-.178.571-.379.832-.6.255-.225.54-.42.75-.66l.833-.87.09-.09h.12l.255.044.382.068.638.105c.427.067.855.135 1.282.188 1.288.195 2.59.275 3.893.24a11.59 11.59 0 0 0 2.88-.556l.6-.217c.75-.262 1.02-.307 1.282-.12.065.036.125.079.18.127.15.158-.105.45-.667.75A12.06 12.06 0 0 1 33 67.612a36.8 36.8 0 0 1-4.29-.48l.007-.022Z" fill="#FF6702"/><path d="M66.676 23.498a.593.593 0 0 1 .645-.533c1.613.15-.81 2.235-.645.533Zm-32.61 53.257a.593.593 0 0 1 .645-.533c1.613.15-.803 2.228-.645.533Z" stroke="#FF6702" stroke-width=".45" stroke-miterlimit="10"/><path d="M82.54 20.715a.503.503 0 0 1 .285.652c-.495 1.283-1.628-1.17-.285-.652Z" fill="#FF6702"/></svg>