<svg width="96" height="96" fill="none" xmlns="http://www.w3.org/2000/svg"><path d="M16.199 44.205a.532.532 0 0 1 .585-.487c1.477.134-.735 2.032-.585.487Z" stroke="#fff" stroke-width=".375" stroke-miterlimit="10"/><path d="M39.748 43.5c-1.8 0-3.6 0-5.415-.172a20.402 20.402 0 0 1-5.483-1.103 4.854 4.854 0 0 1-.802-.375 5.244 5.244 0 0 1-.863-.63 2.453 2.453 0 0 1-.435-.9c-.06-.277-.082-.45-.12-.667a23.78 23.78 0 0 1-.135-1.208c-.367-4.642-.465-9.195-.727-13.695a128.004 128.004 0 0 0-.458-6c-.255-2.565-.607-5.107-.705-7.68-.037-.795.218-.75.645-.12.284.42.535.861.75 1.32.272.635.466 1.3.578 1.98A120.449 120.449 0 0 1 27.703 30c0 1.59.112 3.21.225 4.83.112 1.62.232 3.27.442 4.785l.053.278c0 .045 0 .097.067.12.068.022.15.135.293.232.142.098.3.165.45.263.16.09.325.17.495.24.168.084.344.152.525.202.37.119.75.214 1.132.285.375.09.75.15 1.163.21 1.6.217 3.214.333 4.83.345 2.175.038 4.365 0 6.547-.157 3.308-.195 6.63-.495 9.908-.908 2.542-.322 5.017-.75 7.5-1.185l1.65-.277a8.253 8.253 0 0 1 2.25-.15c.37.01.73.126 1.035.337.114.07.22.153.315.248.097.142-.06.285-.405.435-.54.22-1.097.398-1.665.532a155.256 155.256 0 0 1-14.003 2.1c-3.57.375-7.177.623-10.8.705l.038.03ZM66.32 27.675l.075-3.15v-1.148c0-1.35.068-2.707.053-4.065 0-.6-.075-1.2-.105-1.792a12.944 12.944 0 0 1-.083-2.288c0-.24.3-.24.608-.067a1.5 1.5 0 0 1 .75.952 18.09 18.09 0 0 1 .307 4.718c-.052.952.09 1.927.12 2.895.03.967.06 2.13.052 3.195v4.965c0 .75.15 1.5.203 2.295v.51c0 .645-.21.855-.668.93a2.388 2.388 0 0 1-.307.052c-.345 0-.615-.27-.75-.697a22.257 22.257 0 0 1-.323-4.11v-3.165l.068-.03ZM50.326 8.07c-1.95.105-3.905.227-5.865.367-.75.053-1.425.158-2.145.203-2.528.18-5.063.3-7.613.322h-3.39c-.75 0-1.447 0-2.175-.097a10.545 10.545 0 0 1-2.137-.457c-.435-.143-.323-.308.082-.443a7.133 7.133 0 0 1 1.92-.315c2.828.15 5.715 0 8.633-.113 1.747-.045 3.562-.3 5.355-.48 1.965-.187 3.945-.367 5.925-.51 1.222-.09 2.445-.15 3.667-.21 1.853-.09 3.75-.097 5.573-.082 1.432 0 2.85 0 4.29.052.315 0 .622.038.945.075 1.177.15 1.5.368 1.687.833.044.104.077.212.098.322 0 .353-.48.548-1.305.51-2.468-.082-5.04-.18-7.658-.157-1.95 0-3.907.09-5.872.225l-.015-.045Z" fill="#fff"/><path d="M59.247 20.033a87.44 87.44 0 0 0-4.612 6.172c-.533.75-.99 1.598-1.5 2.385l-1.5 2.363-.75 1.2-1.178 1.897a2.52 2.52 0 0 1-.922.803.27.27 0 0 1-.248.052 1.049 1.049 0 0 1-.247-.112 2.561 2.561 0 0 1-.473-.353 6 6 0 0 1-.915-1.312c-.142-.248-.285-.495-.42-.75l-.292-.548a36.826 36.826 0 0 0-2.318-3.75c-.54-.75-1.102-1.5-1.695-2.175a9.827 9.827 0 0 0-1.86-1.777c-.39-.225-.322-.615.345-.75a3.384 3.384 0 0 1 2.738.967 23.814 23.814 0 0 1 3.75 4.763c.262.412.517.84.75 1.26l.375.63v.142c.021.1.049.197.082.293 0 0 .053.18.083.142l.097-.052.06-.053c.051-.046.1-.096.143-.15l.075-.097.202-.345c.293-.488.578-.983.87-1.5.578-.983 1.148-1.98 1.77-2.94a121.14 121.14 0 0 1 4.59-6.518 83.213 83.213 0 0 1 3.075-3.81 57.433 57.433 0 0 1 5.25-5.332 25.955 25.955 0 0 1 4.65-3.54c.382-.23.784-.427 1.2-.585 1.598-.593 2.25-.413 2.64.187.103.131.194.272.27.42a.675.675 0 0 1-.232.75 4.2 4.2 0 0 1-1.043.645A29.115 29.115 0 0 0 64.4 14.37a64.222 64.222 0 0 0-5.085 5.723l-.068-.06Z" fill="#fff"/><path d="M38.25 44.325a42.371 42.371 0 0 1-4.958-.353 19.78 19.78 0 0 1-4.905-1.267c-.285-.142-.585-.255-.855-.42L27.134 42l-.217-.135a1.381 1.381 0 0 1-.263-.255 2.61 2.61 0 0 1-.494-1.05 8.674 8.674 0 0 1-.21-.93 63.068 63.068 0 0 1-.548-6.33l-.308-6.3c-.09-1.852-.21-3.75-.375-5.55-.217-2.363-.51-4.71-.667-7.065-.052-.75.128-.675.45-.09.215.397.403.808.563 1.23.204.602.35 1.222.434 1.853.604 4.835.942 9.7 1.013 14.572 0 1.455.128 2.94.262 4.425.06.75.143 1.5.248 2.25.08.695.226 1.38.435 2.047.025.063.055.123.09.18a.195.195 0 0 0 .075.083l.465.3c.323.195.668.375 1.012.547.36.167.73.307 1.11.42.38.123.765.226 1.155.308a28.3 28.3 0 0 0 4.8.63 57.62 57.62 0 0 0 6 0c3.045-.142 6.105-.413 9.113-.803 2.34-.3 4.62-.712 6.93-1.08l1.5-.247c1.913-.292 2.58-.127 3 .105.101.037.199.082.292.135.165.203-.562.352-1.934.667-4.088.75-8.46 1.44-12.878 1.883-3.3.373-6.617.559-9.938.555v-.03Zm2.25 44.873c-1.793 0-3.6 0-5.408-.173a20.513 20.513 0 0 1-5.49-1.103 6.632 6.632 0 0 1-1.013-.495l-.555-.434a.66.66 0 0 1-.255-.316 1.439 1.439 0 0 1-.18-.375 1.783 1.783 0 0 1-.112-.382c0-.09-.038-.195-.053-.278l-.075-.51a15.31 15.31 0 0 1-.105-.99c-.337-4.605-.435-9.135-.697-13.694a128.004 128.004 0 0 0-.458-6c-.262-2.565-.615-5.108-.705-7.68-.037-.796.21-.75.638-.12.281.42.532.862.75 1.32.271.634.465 1.299.577 1.98a121.76 121.76 0 0 1 1.095 15.802c0 1.59.113 3.21.225 4.83.113 1.62.225 3.27.435 4.785.083.45 0 .3.323.563.317.214.654.4 1.005.555.783.313 1.602.53 2.437.644a35.74 35.74 0 0 0 5.25.413c2.175.037 4.365 0 6.548-.158a150.36 150.36 0 0 0 9.907-.907c2.55-.322 5.025-.75 7.5-1.185l1.65-.278a8.248 8.248 0 0 1 2.25-.15 2 2 0 0 1 1.043.338c.11.072.214.155.307.248.105.142-.052.285-.405.434-.54.222-1.096.4-1.665.533-4.44.885-9.195 1.597-14.002 2.1-3.57.375-7.17.63-10.793.713l.03-.03Zm26.562-15.78.075-3.158v-1.147c0-1.35.075-2.708.052-4.065 0-.6-.075-1.193-.105-1.793a12.27 12.27 0 0 1-.075-2.25c0-.232.3-.24.608-.067a1.5 1.5 0 0 1 .75.952 17.78 17.78 0 0 1 .307 4.718c-.052.952.09 1.927.128 2.895.037.967.052 2.13.045 3.195v4.927c0 .75.142 1.5.202 2.295v.51c-.045.645-.21.855-.667.93a2.313 2.313 0 0 1-.315.053c-.345 0-.615-.27-.75-.698a21.008 21.008 0 0 1-.323-4.11V73.44l.068-.022ZM51.071 53.805c-1.95.105-3.905.227-5.865.367-.75.06-1.433.158-2.145.203-2.528.18-5.07.307-7.612.322H32.05c-.75 0-1.448 0-2.175-.09a11.336 11.336 0 0 1-2.13-.465c-.435-.142-.322-.307.09-.442a7.127 7.127 0 0 1 1.913-.315c2.827.15 5.715 0 8.632-.113 1.755-.045 3.563-.3 5.355-.48 1.973-.187 3.945-.367 5.933-.51 1.215-.09 2.445-.15 3.667-.21 1.853-.082 3.75-.09 5.565-.082 1.44 0 2.857 0 4.29.052.315 0 .63 0 .945.075 1.178.15 1.5.368 1.688.833.043.105.078.212.105.322 0 .353-.48.548-1.313.51-2.46-.082-5.04-.18-7.657-.157-1.943 0-3.908.09-5.873.225l-.015-.045Z" fill="#fff"/><path d="M59.997 65.767a87.44 87.44 0 0 0-4.612 6.173c-.525.75-.99 1.597-1.5 2.385l-1.388 2.093-.667 1.057-.33.525-.503.885a7.92 7.92 0 0 1-.525.832l-.27.36a1.594 1.594 0 0 1-.135.166l-.135.09-.262.187-.233.12c-.247 0-.39-.12-.577-.233a3.839 3.839 0 0 1-1.073-1.32c-.33-.54-.697-1.237-.847-1.5a35.551 35.551 0 0 0-2.318-3.75 27.072 27.072 0 0 0-1.687-2.175 10.1 10.1 0 0 0-1.868-1.777c-.39-.225-.322-.615.345-.75a3.375 3.375 0 0 1 2.738.968 23.814 23.814 0 0 1 3.75 4.762c.262.42.517.84.75 1.26l.367.63c.045.075 0 .06 0 .068v.075c.015.1.04.198.075.292 0 0 .06.18.09.142l.098-.052a.747.747 0 0 0 .135-.135l.082-.09v-.053l.053-.09.915-1.552c.607-1.043 1.215-2.093 1.867-3.105a94.508 94.508 0 0 1 4.553-6.517c1-1.305 2.027-2.578 3.082-3.818a56.417 56.417 0 0 1 5.213-5.333 26.008 26.008 0 0 1 4.657-3.54c.38-.233.782-.429 1.2-.584 1.59-.593 2.25-.413 2.64.187.101.131.19.272.263.42a.667.667 0 0 1-.233.75c-.31.265-.66.482-1.035.645a29.147 29.147 0 0 0-7.545 5.61 64.135 64.135 0 0 0-5.077 5.722l-.053-.03Z" fill="#fff"/><path d="M40.058 90c-3.375 0-6.803-.15-10.148-1.253l-.592-.202-.578-.278a8.556 8.556 0 0 1-1.14-.66 1.912 1.912 0 0 1-.547-.81 5.231 5.231 0 0 1-.21-.697 46.552 46.552 0 0 1-.683-6.518l-.337-6.45a157.957 157.957 0 0 0-.398-5.7c-.225-2.422-.525-4.83-.697-7.245-.053-.75.127-.69.45-.09.221.407.414.828.577 1.26.21.61.363 1.238.458 1.875.61 4.961.958 9.95 1.042 14.948.053 1.5.15 3 .3 4.5.075.75.165 1.5.285 2.25.068.36.135.75.225 1.057.04.255.141.497.293.705l.067.045a11.37 11.37 0 0 0 4.5 1.665c1.642.278 3.301.438 4.965.48 2.055.06 4.118 0 6.18-.105 3.128-.18 6.263-.495 9.353-.9 2.4-.322 4.74-.75 7.102-1.132l1.56-.248c1.958-.307 2.64-.15 3.075.09.103.048.198.109.285.18.09.105-.067.195-.405.293-.337.097-.877.24-1.582.39-4.193.75-8.67 1.5-13.2 1.972-3.36.368-6.75.623-10.178.66L40.058 90Z" fill="#fff"/><path d="M77.601 13.245a.532.532 0 0 1 .585-.487c1.478.135-.735 2.04-.585.487Zm1.101 51.78a.539.539 0 0 1 .593-.487c1.477.135-.736 2.04-.593.487Z" stroke="#fff" stroke-width=".375" stroke-miterlimit="10"/><path d="M71.408 22.073a.473.473 0 0 1 .263.6c-.42 1.17-1.493-1.073-.263-.6Z" fill="#fff"/></svg>