<svg width="96" height="96" fill="none" xmlns="http://www.w3.org/2000/svg"><path d="M22.258 77.932c.112 0 0 .195-.173.398a1.138 1.138 0 0 1-.345.202h-.255a2.24 2.24 0 0 0-.225-.097h-.128a1 1 0 0 0 .075-.12c.046-.075.068-.09.09-.135a.97.97 0 0 0 .038-.113.46.46 0 0 0 0-.052.43.43 0 0 0 .082.12c.06.09.105.105.21.195a.6.6 0 0 0 .158.112c.052 0 .12.06.098.06 0 0 0 .068-.038.12-.037.053-.052.225-.082.353a.314.314 0 0 1-.083.165c-.13.192-.192.421-.18.652 0 0 0 .075.038.113.056.247.056.503 0 .75-.108.196-.203.4-.285.607 0 0 0 .068-.06.09-.06.023-.128.12-.143.188a.906.906 0 0 1-.105.277c0 .045-.113.083-.18.128a.503.503 0 0 1-.293 0c-.067-.045-.172 0-.255 0h-.097a2.252 2.252 0 0 1-.39-.585l-.045-.413c0-.21-.045-.427-.06-.472-.015-.045 0-.098.052-.143.053-.045-.067-.66-.06-.69.008-.03 0-.277.128-.397a.075.075 0 0 0 0-.075 2.32 2.32 0 0 1 .18-.75c.045-.12.06-.255.105-.398 0 0 .037 0 .052-.06s.053-.06.06-.09a1.29 1.29 0 0 1 .383-.585c.152-.138.335-.238.533-.292.227-.052.464-.036.682.045.065.03.125.067.18.112.059.06.114.122.165.188.05.095.105.188.165.277.03.053-.038.308.008.315Zm12.758-50.835c.127.51.165 1.043.292 1.56.045.188.135.368.18.555a9.66 9.66 0 0 0 .675 1.898c.136.253.316.48.533.667.277.233.54.33.75.518.075.067.067.345-.098.6a.75.75 0 0 1-.862.337 3.096 3.096 0 0 1-1.185-1.035 3.83 3.83 0 0 1-.593-1.267c-.142-.525-.397-1.005-.54-1.5a13.552 13.552 0 0 1-.352-1.71c0-.36-.053-.75-.083-1.065v-1.613c-.03-.414-.03-.83 0-1.245a1.64 1.64 0 0 1 .045-.277c.105-.345.218-.435.383-.443a.296.296 0 0 1 .112 0c.12 0 .158.173.173.398.054.68.15 1.356.285 2.025.09.525.187 1.05.315 1.567l-.03.03Zm-17.083-9.165c.053-.187.293-.082.585.21.128.15.23.32.3.503a2.64 2.64 0 0 1 0 .337s-.082.158-.142.3a.886.886 0 0 0-.068.345.996.996 0 0 1-.06.405l-.157.705c-.089.366-.25.71-.473 1.013a1.147 1.147 0 0 1-.36.33c-.366.208-.706.46-1.012.75-.045 0-.098.06-.105.15-.008.09-.173.232-.323.39-.096.12-.207.228-.33.322a2.44 2.44 0 0 0-.637.443s0 .067-.113.06c-.112-.008-.195.082-.247.157-.053.075-.165.18-.27.278a1.114 1.114 0 0 1-.27.12.51.51 0 0 1-.33-.098c-.053-.082-.188-.067-.285-.09h-.105a2.125 2.125 0 0 1-.15-.532 1.374 1.374 0 0 1 0-.6c.093-.232.201-.457.322-.675.18-.33.42-.645.458-.75a.398.398 0 0 1 .217-.143s.195-.232.39-.435l.39-.39c.173-.112.278-.27.503-.247a.12.12 0 0 0 .09-.053c.202-.187.36-.277.442-.352.083-.075.06-.135.098-.24.037-.105 0 0 .045-.06a.172.172 0 0 0 .06-.083c.11-.471.265-.931.465-1.372.052-.135.57-.503.66-.593.09-.09.39-.037.412-.105Zm15.92 44.506.33.06h.105c.108.033.219.058.33.075h.038c-.015 0-.053-.083 0-.075.152.032.3.08.442.142.218.09.413.233.39.315-.022.083 0 .135-.105.225a.87.87 0 0 1-.225.18.51.51 0 0 1-.375.068c-.135 0-.217.044-.315.052a2.254 2.254 0 0 1-.307 0h-.173c-.082 0-.165 0-.202.038a.044.044 0 0 0-.016.033.044.044 0 0 0 .016.034l-.038-.03h-.322a.382.382 0 0 1-.398-.172.563.563 0 0 1 .105-.586 1.02 1.02 0 0 1 .165-.157l.158-.09a.921.921 0 0 1 .397-.082v-.03Z" fill="#fff"/><path d="M26.044 62.415c.814.155 1.64.243 2.468.262.307 0 .607-.045.907 0a17.138 17.138 0 0 0 3.218-.337c.42-.105 1.005-.3 1.035-.465.106-.236.16-.492.157-.75 0-.143 0-.293.045-.465a1.43 1.43 0 0 1 .21-.623c.24-.21.368.083.488.293a.938.938 0 0 1 .465.75 2.94 2.94 0 0 1-.255 1.222 1.791 1.791 0 0 1-.188.33 1.686 1.686 0 0 1-.397.353 3.817 3.817 0 0 1-.57.27 7.867 7.867 0 0 1-2.018.442c-.802.068-1.62.255-2.437.285a16.91 16.91 0 0 1-2.7-.09c-.555-.075-1.103-.142-1.643-.27a11.247 11.247 0 0 1-1.222-.315 12.43 12.43 0 0 1-1.193-.412 17.378 17.378 0 0 1-1.83-.75 2.704 2.704 0 0 1-.375-.218c-.435-.33-.51-.517-.375-.855.038-.082.06-.157.098-.232a.638.638 0 0 1 .795-.165c.255.082.48.202.75.292.27.09.487.188.75.293.262.105.502.172.75.27.247.097.502.187.75.255.38.136.768.249 1.162.337.394.11.795.193 1.2.248l-.045.045Zm38.682 6.892a21.348 21.348 0 0 1-.3 2.16c-.06.255-.083.525-.143.75-.254.904-.604 1.78-1.042 2.61-.24.345-.405.75-.653 1.058-.157.21-.292.442-.465.637-.18.195-.376.376-.585.54-.127.098-.225-.037-.255-.262a.968.968 0 0 1 .165-.75 16.7 16.7 0 0 0 1.41-2.543c.225-.57.374-1.168.443-1.777a15.17 15.17 0 0 0 .225-1.98v-1.275a16.844 16.844 0 0 0-.12-1.935c-.06-.495-.233-.968-.33-1.455 0-.105-.06-.21-.075-.323-.06-.405 0-.547.292-.675.063-.034.128-.065.195-.09.218-.067.435.068.563.353.372.877.583 1.815.622 2.767.06.726.075 1.455.045 2.183l.008.007ZM81 73.433c0-.136.187-.158.404-.15.068 0 .233.097.24.142.008.045.045.188.06.27.015.083-.09.75-.075 1.05a1.605 1.605 0 0 1-.187.66l-.263.63-.127.315v.12c0 .037 0 0-.045.052a.164.164 0 0 0-.059.159.164.164 0 0 0 .111.127h.338a.811.811 0 0 1 .24 0c.382.1.756.23 1.117.39.053 0 .12 0 .15.105.068.195.188.202.285.277.137.1.257.221.353.36.042.09.068.186.075.285 0 .083-.143.218-.173.225-.03.007-.105.127-.157.195l-.053.075s-.225 0-.427.052a1.51 1.51 0 0 0-.263.09.39.39 0 0 1-.127 0 1.9 1.9 0 0 0-.398 0 4.574 4.574 0 0 0-.562.06.097.097 0 0 1-.09 0l-.173-.044c-.278 0-.554-.045-.817-.135a2.196 2.196 0 0 1-.75-.428 1.274 1.274 0 0 1-.473-.847.399.399 0 0 0-.06-.18 1.957 1.957 0 0 1 .113-1.59c.067-.143.105-.18.142-.263l.12-.218s.053-.037.075-.06a.473.473 0 0 0 .083-.09c.187-.337.42-.66.6-1.004.052-.076.442-.353.487-.443.045-.09.285-.12.285-.188Zm-8.88-38.296a16.59 16.59 0 0 0-1.815-.487c-.225-.045-.457-.053-.69-.098a20.08 20.08 0 0 0-2.437-.36 7.848 7.848 0 0 0-1.11 0 4.934 4.934 0 0 1-1.41 0c-.3-.067.045-1.185.592-1.222a11.627 11.627 0 0 1 3 .202c.593.12 1.215.12 1.823.218.666.114 1.324.267 1.972.457.405.113.795.255 1.185.39.593.218 1.17.473 1.74.75.443.203.885.383 1.313.615.095.046.186.102.27.165.315.248.375.383.307.623l-.045.157c-.075.158-.292.195-.57.12a11.634 11.634 0 0 1-1.192-.382 10.22 10.22 0 0 1-1.155-.45c-.57-.24-1.155-.45-1.748-.638l-.03-.06Zm1.686-16.687c-.157-.06-.188-.24-.18-.473 0-.082.105-.24.165-.24.115-.007.23-.007.345 0 .06 0 .998.368 1.328.488.295.127.57.296.817.502a9.514 9.514 0 0 1 1.44 1.313c.1.11.183.234.248.367.225.488.54.855.855 1.455.044.09.067.188.157.248.148.219.262.46.338.712.062.135.112.276.15.42a3.2 3.2 0 0 0 .472.998c0 .06.105.097.082.202-.044.225.068.33.143.465.104.19.17.4.195.615 0 .105-.075.248-.18.375a.285.285 0 0 1-.27.098c-.09-.053-.172.045-.233.067a.158.158 0 0 1-.082 0 .75.75 0 0 1-.255-.06l-.285-.18c-.202-.112-.405-.18-.435-.21a8.591 8.591 0 0 1-1.32-1.35.811.811 0 0 1-.112-.352l-.3-.653-.173-.337-.075-.135a1.33 1.33 0 0 0-.075-.195.45.45 0 0 1-.045-.293.18.18 0 0 0-.052-.12c-.21-.277-.398-.622-.615-.945a5.482 5.482 0 0 0-.39-.457.39.39 0 0 1-.046-.098.51.51 0 0 0-.067-.127 8.762 8.762 0 0 0-.945-1.05 6.004 6.004 0 0 0-.42-.683c-.052-.067-.12-.352-.18-.367Z" fill="#fff"/><path d="M38.511 45.277a19.149 19.149 0 0 1-2.032 1.748l-.12.097-.06.038s-.068.09-.105.127a1.83 1.83 0 0 0-.225.368c-.154.32-.27.657-.345 1.005a16.927 16.927 0 0 0-.248 1.702 36.962 36.962 0 0 0-.127 6.39c.066.958.18 1.912.345 2.858.112.6.21 1.207.292 1.815.045.3.075.6.105.907v.915c0 .15-.075.21-.232.3a.638.638 0 0 1-.45-.127 2.454 2.454 0 0 1-1.192-1.5 19.16 19.16 0 0 1-.608-3.795 31.795 31.795 0 0 1-.075-3.878c.075-1.552 0-3.165.195-4.8.115-.942.39-1.857.81-2.707.133-.238.288-.461.465-.668a2.16 2.16 0 0 1 .33-.307l.255-.203c.33-.255.645-.51.96-.75.764-.68 1.46-1.434 2.078-2.25a12.591 12.591 0 0 0 2.152-4.042c.32-1.124.464-2.29.427-3.458v-.75a2.153 2.153 0 0 1 .083-1.005c.13-.208.313-.377.532-.487.106-.053.196-.12.278-.158.082-.037.27 0 .45.188.25.236.401.557.428.9a12.165 12.165 0 0 1-1.186 7.08 16.202 16.202 0 0 1-3.15 4.5l-.03-.053Zm-25.529-9.69a43.97 43.97 0 0 0 1.395 5.88c.217.75.48 1.41.712 2.13.795 2.513 1.545 5.085 2.182 7.695.278 1.155.563 2.325.75 3.503a10.927 10.927 0 0 1-.044 4.65c-.113.48-.398.33-.668-.105a4.929 4.929 0 0 1-.578-1.935 28.159 28.159 0 0 0-.712-4.305c-.307-1.455-.75-2.91-1.087-4.395-.48-1.778-1.178-3.57-1.748-5.378a59.224 59.224 0 0 1-1.612-6.097l-.18-.96-.143-.975a18.932 18.932 0 0 1-.173-1.965c-.04-1.006.04-2.013.24-3 .182-.977.433-1.94.75-2.88a11.655 11.655 0 0 1 2.108-4.2c.246-.28.523-.532.825-.75.26-.17.54-.308.832-.413.212-.045.429-.065.646-.06a.944.944 0 0 1 .682.375c.063.072.118.15.165.233.045.127-.068.24-.248.382-.105.07-.215.133-.33.188-.125.1-.258.19-.397.27a5.722 5.722 0 0 0-2.055 2.64 18.004 18.004 0 0 0-1.185 3.69c-.213.936-.334 1.89-.36 2.85 0 .465.053.967.075 1.455.023.487.135.982.195 1.5l-.037-.023Z" fill="#fff"/><path d="M18.928 21.375A16.373 16.373 0 0 0 17.87 24c-.097.337-.142.682-.232 1.02a26.728 26.728 0 0 0-.75 3.667 14.075 14.075 0 0 0-.083 1.68c.064.723.018 1.45-.135 2.16-.06.225-.375.195-.705 0a1.5 1.5 0 0 1-.75-.968 14.91 14.91 0 0 1 .375-4.5c.218-.892.27-1.852.503-2.767a19.791 19.791 0 0 1 1.005-2.948 13.91 13.91 0 0 1 .9-1.755 6.668 6.668 0 0 1 2.1-2.197 5.437 5.437 0 0 1 2.295-.802 3.65 3.65 0 0 1 .495 0c.592 0 .667.12.855.51.037.09.09.172.127.255a.403.403 0 0 1-.075.42.968.968 0 0 1-.547.322c-.338.09-.66.165-.923.255-.254.05-.505.118-.75.203a3.142 3.142 0 0 0-1.185.75 6.917 6.917 0 0 0-1.417 2.107l-.045-.037Z" fill="#fff"/><path d="m24.748 18.247-.218.315-.187.353c-.12.232-.263.457-.368.705-.202.502-.435.99-.615 1.5-.13.384-.24.774-.33 1.17a29.93 29.93 0 0 0-.975 4.305 19.39 19.39 0 0 0-.142 1.972 9.933 9.933 0 0 1-.165 2.588c-.068.277-.323.21-.6 0a1.98 1.98 0 0 1-.698-1.125 15.705 15.705 0 0 1-.09-2.655 13.57 13.57 0 0 1 .345-2.678c.24-1.05.338-2.175.608-3.27.298-1.21.763-2.374 1.38-3.457.186-.342.396-.67.63-.983a6.62 6.62 0 0 1 .75-.915 3.43 3.43 0 0 1 .645-.63c.24-.187.45-.375.75-.562a4.952 4.952 0 0 1 1.732-.63 5.392 5.392 0 0 1 2.873.157c.22.07.426.18.607.323.255.188.446.45.548.75a.907.907 0 0 1-.113.562 1.6 1.6 0 0 1-.12.203c-.075.097-.195.112-.367.097a2.171 2.171 0 0 1-.593-.097c-.54-.162-1.1-.25-1.665-.263a4.5 4.5 0 0 0-1.695.345 1.319 1.319 0 0 0-.427.308c-.173.157-.36.292-.533.465l-.472.562a7.08 7.08 0 0 0-.42.63l-.075-.045Z" fill="#fff"/><path d="M34.257 19.29c.297-.545.628-1.071.99-1.575.18-.262.375-.513.585-.75l.308-.345.157-.12c.045 0 .083-.053.06-.105a.285.285 0 0 0 0-.075.45.45 0 0 0-.052-.135 2.31 2.31 0 0 0-.645-.863 2.926 2.926 0 0 0-1.65-.502 2.093 2.093 0 0 0-1.253.607 8.748 8.748 0 0 0-1.26 1.343 17.439 17.439 0 0 0-3.127 6.81c-.338 1.5-.45 3-.638 4.5-.06.465-.427.42-.75 0a3 3 0 0 1-.585-2.175 20.64 20.64 0 0 1 1.095-4.838 18.711 18.711 0 0 1 2.25-4.455 15.877 15.877 0 0 1 1.995-2.407c.43-.422.94-.754 1.5-.975.167-.066.34-.111.518-.135h.93l.435.075c.93.179 1.767.68 2.362 1.417.144.186.274.381.39.585l.15.308.165.42c.078.278.098.569.06.855a.747.747 0 0 1-.06.195v.052h.045l-.06.083-.262.33c-.143.135-.315.292-.428.42l-.277.337c-.2.23-.373.482-.518.75a12.813 12.813 0 0 0-1.5 3.435 16.337 16.337 0 0 0-.517 5.745 15.13 15.13 0 0 0 1.2 4.215c.127.3.292.57.42.863.502 1.072.547 1.5.337 1.942a2.761 2.761 0 0 1-.142.3c-.173.263-.675 0-1.358-.75a13.695 13.695 0 0 1-2.572-8.647c0-.578.075-1.155.135-1.733a9.6 9.6 0 0 1 .345-1.71c.274-1.14.669-2.25 1.177-3.307l.045.015Z" fill="#fff"/><path d="M51.68 36.052a8.347 8.347 0 0 1-1.432-2.302.248.248 0 0 1 0-.105c0-.06-.045 0-.068-.06h-.21l-.6-.038h-1.702c-2.01-.075-4.035-.112-6.053 0-.89.04-1.776.132-2.655.278-.562.097-1.117.217-1.665.322-.547.105-1.095.173-1.635.248-.337.045-.435-.293-.255-.75a2.16 2.16 0 0 1 1.343-1.245c1.18-.29 2.386-.47 3.6-.54a31.874 31.874 0 0 1 3.592-.068c1.433.06 2.918-.075 4.388-.045.39 0 .75 0 1.17.038h.592c.24 0 .6 0 .893.067l.292.248.143.12.067.142c.109.215.232.423.368.623.127.217.172.352.27.532.097.18.21.353.33.518.54.758 1.172 1.445 1.882 2.047 1.08.949 2.296 1.73 3.608 2.318.501.22 1.02.399 1.552.532.54.105 1.065.248 1.605.3.233 0 .465.045.705.09.87.105 1.133.24 1.283.75.042.118.077.238.105.36.06.39-.353.66-1.088.683a12.75 12.75 0 0 1-6.42-1.845 16.07 16.07 0 0 1-3.997-3.24l-.008.022Zm.251-22.762 3-.66 1.5-.345c.525-.105 1.058-.24 1.583-.315.772-.143 1.55-.246 2.332-.308a21.237 21.237 0 0 1 4.14.173c1.38.18 2.73.542 4.013 1.08.576.236 1.139.501 1.688.795.54.309 1.056.657 1.544 1.042a10.501 10.501 0 0 1 1.77 1.673c.233.33.435.682.638 1.027.169.366.3.748.39 1.14.112.488-.157.51-.66.315a4.71 4.71 0 0 1-1.74-1.125 11.902 11.902 0 0 0-7.02-4.192 16.154 16.154 0 0 0-5.415-.143c-1.01.103-2.013.273-3 .51l-3.053.698-3.75.81c-1.912.405-3.84.75-5.744 1.095-1.5.255-2.925.57-4.403.75-.322.052-.645.112-.975.15a4.212 4.212 0 0 1-1.305 0 .952.952 0 0 1-.608-.323 2.42 2.42 0 0 1-.195-.172c-.127-.15.338-.533 1.2-.75l3.946-.885c1.334-.3 2.684-.6 4.05-.848a218.35 218.35 0 0 0 6.067-1.282l.007.09Z" fill="#fff"/><path d="M73.552 20.145a13.795 13.795 0 0 0-2.25-1.073c-.3-.12-.586-.172-.878-.262a22.133 22.133 0 0 0-3.27-.66 14.231 14.231 0 0 0-1.5-.12 6.694 6.694 0 0 1-1.905-.24c-.203-.053-.18-.18 0-.36.24-.244.54-.423.87-.518a3.266 3.266 0 0 1 1.005-.097h1.005c.676.042 1.346.147 2.002.315.796.202 1.635.262 2.468.51.886.27 1.747.616 2.572 1.035.522.258 1.023.553 1.5.885a9.318 9.318 0 0 1 1.92 1.807c.46.542.836 1.148 1.118 1.8.07.147.125.3.165.458.142.585 0 .795-.442.915a2.412 2.412 0 0 1-.316.075.705.705 0 0 1-.75-.465 7.993 7.993 0 0 0-1.357-2.535 7.25 7.25 0 0 0-1.883-1.5l-.075.03Z" fill="#fff"/><path d="M78.75 26.25a8.875 8.875 0 0 0-2.25-1.403c-.3-.142-.616-.247-.923-.375a31.922 31.922 0 0 0-3.405-1.162 16.25 16.25 0 0 0-1.575-.315 13.243 13.243 0 0 1-2.01-.405c-.21-.068-.158-.278.052-.488a1.374 1.374 0 0 1 .99-.405c.718.03 1.432.13 2.13.3.705.15 1.4.348 2.078.593.81.3 1.695.487 2.535.81.942.35 1.842.803 2.685 1.35.255.172.495.382.75.57.238.211.463.437.675.675a5.4 5.4 0 0 1 1.267 2.595c.138.741.183 1.497.135 2.25 0 .16-.02.318-.06.472-.135.578-.36.698-.75.75h-.232a.382.382 0 0 1-.3-.21.952.952 0 0 1-.158-.51c-.067-.615 0-1.162 0-1.695a5.053 5.053 0 0 0-.247-1.5 4.5 4.5 0 0 0-1.388-1.897Z" fill="#fff"/><path d="M77.301 35.25c.998.472 1.988.952 3 1.372.476.21.964.39 1.463.54a2.58 2.58 0 0 0 1.2.15.21.21 0 0 0 .142-.082c.045 0 .045-.068.068-.203a2.45 2.45 0 0 0 0-.412c0-.158-.045-.308-.083-.473A6.908 6.908 0 0 0 81 32.94a17.563 17.563 0 0 0-3.353-2.378c-.547-.285-1.117-.54-1.68-.802-.562-.263-1.155-.435-1.732-.653-.75-.262-1.5-.442-2.25-.697a20.741 20.741 0 0 1-2.25-.75c-.465-.203-.353-.39.12-.548a4.5 4.5 0 0 1 2.25-.105c.817.188 1.612.465 2.415.705.802.24 1.582.57 2.355.938a18.353 18.353 0 0 1 4.372 2.685l.593.517c.195.18.375.375.562.563.382.386.736.8 1.058 1.237a5.385 5.385 0 0 1 1.185 3.203c.007.412-.11.818-.338 1.162a1.8 1.8 0 0 1-1.102.668 4.432 4.432 0 0 1-1.935-.188A27.425 27.425 0 0 1 78 37.312c-1.268-.532-2.513-1.095-3.75-1.605a34.15 34.15 0 0 0-5.835-1.89 17.997 17.997 0 0 0-4.605-.315c-.33 0-.653.068-.99.083-1.238.112-1.628.105-1.988-.315-.075-.098-.18-.188-.24-.285-.187-.308.285-.75 1.275-.953a18.75 18.75 0 0 1 9.113.713 53.896 53.896 0 0 1 6.36 2.452l-.038.053Zm4.565 29.25a35.256 35.256 0 0 0-.45-6.255c-.112-.75-.292-1.5-.427-2.25-.248-1.343-.54-2.67-.825-4.035-.285-1.365-.473-2.76-.623-4.14-.127-1.23-.247-2.475-.292-3.75a15.38 15.38 0 0 1 .097-2.415 4.89 4.89 0 0 1 .9-2.31c.338-.428.435-.218.465.255 0 .217.053.54.09.877 0 .165.06.36.06.548 0 .187 0 .375-.037.585a43.773 43.773 0 0 0 .54 9.202c.292 1.853.9 3.803 1.252 5.745.415 2.15.666 4.33.75 6.518.04 1.354-.01 2.71-.15 4.057a19.504 19.504 0 0 1-1.545 5.955c-.165.368-.307.75-.48 1.095l-.592 1.043a13.503 13.503 0 0 1-1.373 1.957 4.135 4.135 0 0 1-.75.825c-.423.393-.975.62-1.552.638a.75.75 0 0 1-.75-.533.75.75 0 0 1 0-.322c0-.15.21-.18.36-.255.15-.075.262-.203.547-.36a4.42 4.42 0 0 0 1.2-1.26 11.68 11.68 0 0 0 1.118-1.628l.51-.855.405-.922c.149-.303.282-.614.397-.93l.308-.968a22.6 22.6 0 0 0 .81-6.112h.037Z" fill="#fff"/><path d="M75.75 75.855c.539-.728.987-1.519 1.335-2.355.113-.315.195-.63.285-.953A17.13 17.13 0 0 0 78 69c.045-.539.06-1.08.045-1.62a8.994 8.994 0 0 1 .173-2.093c.045-.217.202-.187.397 0 .263.247.441.57.51.923.045.36.098.75.113 1.072.015.323 0 .75 0 1.08a16.73 16.73 0 0 1-.285 2.183c-.18.862-.278 1.785-.548 2.662a12 12 0 0 1-2.295 4.268 7.214 7.214 0 0 1-2.25 1.755 9.669 9.669 0 0 1-2.062.75c-.158.037-.315.082-.473.105-.6.097-.795-.075-.922-.413 0-.082-.06-.165-.083-.24-.052-.27.173-.517.555-.637a10.02 10.02 0 0 0 3.105-1.193 6.594 6.594 0 0 0 1.77-1.815v.068Z" fill="#fff"/><path d="M70.7 78c.31-.364.588-.753.833-1.163.255-.397.473-.816.652-1.252.113-.33.188-.69.293-1.043.352-1.245.675-2.52.937-3.802.11-.568.19-1.141.24-1.718.036-.742.147-1.478.33-2.197.068-.225.218-.195.405 0 .27.285.445.646.503 1.035a15.925 15.925 0 0 1-.645 4.635c-.27.9-.405 1.852-.675 2.782a7.84 7.84 0 0 1-.248.75 3.668 3.668 0 0 1-.172.428l-.188.345c-.247.465-.525.922-.825 1.372a7.502 7.502 0 0 1-1.305 1.545 5.94 5.94 0 0 1-2.752 1.373c-.763.194-1.546.3-2.333.315h-.51a1.26 1.26 0 0 1-.652-.195.75.75 0 0 1-.21-.473c0-.082-.038-.15-.045-.202-.008-.053.052-.173.195-.315a.696.696 0 0 1 .532-.24l1.853-.098a7.506 7.506 0 0 0 1.717-.352 4.823 4.823 0 0 0 2.078-1.5L70.7 78Z" fill="#fff"/><path d="M64.318 81.645a4.5 4.5 0 0 1-2.858.278 2.918 2.918 0 0 1-1.837-1.5 5.376 5.376 0 0 1-.345-.87 1.237 1.237 0 0 1 .097-.803 1.88 1.88 0 0 1 .24-.36c.083-.098.203-.248.248-.293.48-.517.862-1.004 1.275-1.5a13.373 13.373 0 0 0 2.745-6.21c.163-1.023.226-2.06.187-3.097 0-.66-.067-1.328-.12-1.988-.052-.66-.052-1.342-.075-2.017 0-.427.173-.405.443-.09a4.5 4.5 0 0 1 .93 1.725 15.668 15.668 0 0 1-.75 8.58 16.609 16.609 0 0 1-2.633 4.665l-.75.855-.225.24a.157.157 0 0 0-.037.188.748.748 0 0 0 .06.165l.15.277.187.233.225.18c.371.216.806.298 1.23.232a4.283 4.283 0 0 0 2.64-1.425 13.014 13.014 0 0 0 2.363-4.448c.386-1.256.662-2.543.825-3.847.045-.293.067-.57.127-.855.173-1.072.488-1.372.803-1.56a1.74 1.74 0 0 1 .21-.128c.105-.044.187.053.27.27.12.31.186.637.195.968a16.431 16.431 0 0 1-.473 3.75 21.196 21.196 0 0 1-1.215 3.75c-.399.934-.902 1.82-1.5 2.64l-.495.615c-.197.215-.41.416-.637.6a6.6 6.6 0 0 1-1.44.87l-.06-.09ZM61.05 51.51c.54-.533 1.118-1.028 1.658-1.5.27-.225.532-.443.75-.645.12-.11.22-.243.292-.39 0-.24.06-.533.083-.81.052-.615 0-1.238.082-1.86.143-2.19.248-4.395.24-6.593 0-.975-.075-1.957-.142-2.917-.09-1.238-.293-2.453-.368-3.668 0-.382.195-.405.518-.135.474.4.797.951.915 1.56.477 2.558.63 5.166.457 7.763-.082 1.545 0 3.157-.052 4.747 0 .69-.068 1.35-.135 2.093a2.07 2.07 0 0 1-.48 1.05 5.68 5.68 0 0 1-.615.645l-1.185 1.057a13.334 13.334 0 0 0-2.048 2.25 12.75 12.75 0 0 0-1.927 4.215 16.288 16.288 0 0 0-.368 3.563v.75c0 .982-.127 1.29-.637 1.5-.11.059-.226.106-.345.142-.383.105-.698-.315-.795-1.087a15.068 15.068 0 0 1 0-3.533 15.43 15.43 0 0 1 .952-3.592 14.34 14.34 0 0 1 3.083-4.695l.067.09Z" fill="#fff"/><path d="M46.364 61.117c.277.338.54.675.795 1.02l.36.518c.075.105.06.082.067.105h.053l.232.045.578.09c.39.06.795.097 1.192.142.585.06 1.17.068 1.763.12 2.077.18 4.162.33 6.255.39.922 0 1.852 0 2.767-.045.585 0 1.17-.082 1.755-.142l.863-.053a7.83 7.83 0 0 0 .855-.052c.345 0 .39.21.142.54a2.685 2.685 0 0 1-1.5.915 29.35 29.35 0 0 1-3.697.307 35.737 35.737 0 0 1-3.69-.157c-1.5-.135-3-.105-4.5-.203a47.16 47.16 0 0 1-2.49-.225c-.21 0-.42-.052-.645-.097a3.309 3.309 0 0 1-.413-.083 2.866 2.866 0 0 1-.442-.18 2.877 2.877 0 0 1-.33-.345l-.203-.277-.367-.473a15.906 15.906 0 0 0-1.995-2.145A12.067 12.067 0 0 0 40.1 58.5a8.81 8.81 0 0 0-1.62-.45 12.241 12.241 0 0 0-1.65-.143h-.75c-.9 0-1.192-.112-1.425-.547a2.78 2.78 0 0 1-.157-.293c-.12-.33.255-.637 1.012-.795a10.357 10.357 0 0 1 3.458.12c1.174.265 2.303.7 3.352 1.29a14.767 14.767 0 0 1 4.05 3.39l-.007.045Zm-33.925-.045a5.874 5.874 0 0 1 .187-1.98 3.495 3.495 0 0 1 1.26-1.905c.39-.289.847-.472 1.328-.532a1.783 1.783 0 0 1 1.23.622c.081.076.159.156.232.24l.15.165.27.308c.173.202.345.397.525.585A12.571 12.571 0 0 0 19.331 60a17.303 17.303 0 0 0 7.5 2.925c1.215.2 2.444.303 3.675.307h4.74c.495 0 .458.285.06.593a4.245 4.245 0 0 1-2.092.795c-1.662.182-3.338.2-5.003.052a19.443 19.443 0 0 1-4.965-1.02 17.865 17.865 0 0 1-5.617-2.902 12.87 12.87 0 0 1-1.275-1.193l-.975-1.057c-.075-.075-.18-.165-.285-.105a.849.849 0 0 0-.315.187 1.942 1.942 0 0 0-.578 1.08 5.04 5.04 0 0 0 0 1.808c.088.59.306 1.154.638 1.65a8.492 8.492 0 0 0 2.032 2.047 15.422 15.422 0 0 0 2.558 1.5 23.433 23.433 0 0 0 4.365 1.5c.33.09.66.15.982.233 1.223.292 1.553.457 1.755.93l.165.315a.217.217 0 0 1 0 .24.622.622 0 0 1-.307.195c-.385.11-.79.136-1.185.075a21.45 21.45 0 0 1-8.528-3.06 11.574 11.574 0 0 1-2.782-2.393A7.173 7.173 0 0 1 12.859 63a5.834 5.834 0 0 1-.3-1.013 8.748 8.748 0 0 1-.128-.952l.008.037Z" fill="#fff"/><path d="M16.448 69.787a8.602 8.602 0 0 0 2.302 1.403c.323.15.66.247.968.367 1.174.444 2.37.825 3.585 1.14.546.135 1.1.24 1.657.315a8.06 8.06 0 0 1 2.13.42c.21.09.143.375-.09.66a1.447 1.447 0 0 1-1.057.563 17.682 17.682 0 0 1-4.418-.878c-.862-.315-1.8-.465-2.714-.817a13.837 13.837 0 0 1-2.82-1.425 6 6 0 0 1-1.5-1.41 6.142 6.142 0 0 1-1.05-2.865 15.513 15.513 0 0 1-.21-2.25v-.495c.067-.615.225-.75.675-.833.102-.01.205-.01.307 0 .345 0 .585.285.638.705a21.89 21.89 0 0 0 .412 3.503c.217.73.648 1.378 1.237 1.86l-.052.037Z" fill="#fff"/><path d="M19.552 75.195c.753.408 1.541.75 2.355 1.02.3.097.652.157.922.232 1.11.272 2.242.45 3.383.533.524.045 1.05.045 1.575.045a5.248 5.248 0 0 1 2.04.217c.21.075.15.308-.053.563-.203.255-.533.592-.9.592a20.45 20.45 0 0 1-4.102-.082c-.833-.15-1.74-.12-2.648-.338a15.484 15.484 0 0 1-2.737-.945 10.744 10.744 0 0 1-1.59-.892 5.85 5.85 0 0 1-1.898-2.13 5.018 5.018 0 0 1-.645-2.175v-.503c.09-.607.263-.75.75-.75.102-.011.205-.011.307 0a.75.75 0 0 1 .616.683c.06.918.374 1.8.907 2.55.495.57 1.1 1.034 1.777 1.365l-.06.015Z" fill="#fff"/><path d="M35.346 80.362c.945-.18 1.883-.427 2.85-.675a64.563 64.563 0 0 1 2.948-.675c.75-.15 1.432-.323 2.152-.45 2.55-.433 5.121-.73 7.703-.892 1.147-.053 2.295-.128 3.442-.128h1.11l1.118.112a6.57 6.57 0 0 1 2.167.645c.435.203.263.398-.18.548-.274.087-.555.15-.84.188a2.73 2.73 0 0 1-1.08.06c-1.412-.1-2.83-.127-4.245-.083-1.44.045-2.895.15-4.365.255a45.754 45.754 0 0 0-5.317.9c-.968.203-1.935.412-2.903.645-.967.233-1.897.51-2.895.75a31.684 31.684 0 0 1-3.682.75c-1.91.271-3.851.223-5.745-.142a11.25 11.25 0 0 1-4.155-1.725 5.246 5.246 0 0 1-.803-.608 2.61 2.61 0 0 1-.817-1.05c-.05-.12-.08-.246-.09-.375.012-.12.04-.239.082-.353.02-.092.048-.182.083-.27.082-.195.75-.105 1.32.428.915.737 1.924 1.35 3 1.823a10.66 10.66 0 0 0 3.502.794 20.49 20.49 0 0 0 5.64-.532v.06ZM81 26.73c.105.12 0 .27-.15.45-.053.052-.255.12-.3.09a1.427 1.427 0 0 1-.24-.18c-.045 0-.435-.75-.57-1.05a3.67 3.67 0 0 1-.308-.75 13.829 13.829 0 0 1-.427-1.613 1.496 1.496 0 0 1 0-.367 4.815 4.815 0 0 0-.135-1.238.405.405 0 0 0-.083-.195 6.26 6.26 0 0 1-.285-1.32V19.32c0-.06.053-.233 0-.345a1.924 1.924 0 0 1 0-.465.578.578 0 0 1 .144-.309.13.13 0 0 1 .094-.028.127.127 0 0 1 .047.014c.06.053.105 0 .15-.037h.053c.12 0 .682.75.705.855.022.105.435 1.297.465 1.44a.518.518 0 0 1 0 .24c0 .052.27 1.065.285 1.102a1.59 1.59 0 0 1 0 .653.187.187 0 0 0 0 .127c.06.36.103.723.127 1.088l.075.547a.498.498 0 0 1 0 .105.754.754 0 0 0 0 .128c.046.433.127.862.24 1.282 0 .098 0 .593.075.698.075.105.038.27.038.315Zm-8.49 52.86c-.142.135-.337.097-.57 0-.075-.045-.172-.233-.135-.285.076-.103.159-.2.248-.293.474-.299.976-.55 1.5-.75a5.616 5.616 0 0 1 1.102-.315 19.747 19.747 0 0 1 2.25-.285c.168-.011.335-.011.503 0 .57.049 1.144.064 1.717.045a.75.75 0 0 0 .285 0 9.916 9.916 0 0 1 1.883 0c.487.105.975.18 1.455.263a.48.48 0 0 1 .21.052.79.79 0 0 0 .442.113c.209.014.417.039.623.075.108.026.212.069.307.127.09.045 0 .195 0 .21v.248a8.442 8.442 0 0 1-1.372.285h-2.003a1.496 1.496 0 0 1-.315-.045h-1.5a3.304 3.304 0 0 1-.855-.083.451.451 0 0 0-.172 0h-1.5c-.255 0-.503 0-.75.06h-.113a.655.655 0 0 0-.172 0 9.3 9.3 0 0 0-1.71.315c-.068 0-.255.045-.45.075-.154.03-.304.073-.45.128-.083.03-.398-.03-.458.06ZM18.7 75.577c-.113-.082-.053-.225.09-.42.044-.067.232-.172.277-.15.086.043.17.093.247.15.232.31.428.644.585.998.111.239.192.49.24.75.12.517.195 1.034.263 1.544.011.115.011.23 0 .346a5.989 5.989 0 0 0 0 1.162.33.33 0 0 0 .045.188c.064.419.079.844.045 1.267-.068.33-.09.652-.15.967v.143a.343.343 0 0 0-.075.292v.436a1.19 1.19 0 0 1-.038.202.143.143 0 0 1-.15.082c-.052 0-.09 0-.127.068h-.045a1.372 1.372 0 0 1-.315-.413 3.342 3.342 0 0 1-.248-.51 13.89 13.89 0 0 1-.24-1.387.655.655 0 0 1 0-.21s-.127-.99-.127-1.02a1.334 1.334 0 0 1 .052-.593.288.288 0 0 0 0-.112v-.998a3.81 3.81 0 0 0-.045-.502.366.366 0 0 1 0-.09.571.571 0 0 0 0-.112 5.181 5.181 0 0 0-.202-1.148 4.017 4.017 0 0 0-.098-.6c0-.067.068-.3.015-.33Zm2.486-57.967c.097-.075.202 0 .315.247a.562.562 0 0 1 0 .323.955.955 0 0 1-.158.187s-.615.233-.817.3c-.191.07-.39.116-.593.135-.405.053-.81.105-1.222.143-.09.011-.18.011-.27 0a2.925 2.925 0 0 0-.923 0 .255.255 0 0 0-.157.045 3.267 3.267 0 0 1-1.02.075c-.263-.083-.533-.135-.795-.195-.038 0-.083 0-.113-.045a.263.263 0 0 0-.247-.105 1.501 1.501 0 0 1-.345-.068.526.526 0 0 1-.165-.135c-.053-.052 0-.225 0-.247v-.21a.248.248 0 0 1 0-.075c.232-.152.485-.27.75-.353l.502-.052c.255 0 .518-.06.57-.075a.36.36 0 0 1 .173.037s.75-.082.81-.082c.157 0 .307 0 .465.067a.16.16 0 0 0 .097 0c.267-.018.535-.018.803 0 .135.008.27.008.405 0h.075a.243.243 0 0 0 .097 0 7.01 7.01 0 0 0 .968-.075c.172.012.345.012.517 0 .09.06.24.188.278.158Z" fill="#fff"/></svg>