<svg width="96" height="96" fill="none" xmlns="http://www.w3.org/2000/svg"><path d="M26.673 44.85c.427.398.819.832 1.17 1.297.128.173.27.323.39.503.41.612.788 1.246 1.133 1.897.157.293.315.57.472.855.206.36.391.73.555 1.11.09.24-.375.12-.615-.292-.42-.75-.795-1.5-1.192-2.213a9.693 9.693 0 0 0-.84-1.275c-.333-.453-.702-.88-1.103-1.275a9.46 9.46 0 0 0-.75-.675c-.42-.308-.88-.56-1.365-.75a3.748 3.748 0 0 0-.57-.157l-.585-.083h-.255c-.322 0-.42-.045-.495-.195a.394.394 0 0 1-.045-.097c0-.105.105-.188.368-.203a4.365 4.365 0 0 1 2.302.525 6.915 6.915 0 0 1 1.5 1.02l-.075.008Zm49.481.352a8.411 8.411 0 0 0-.795.908c-.083.127-.165.247-.24.375a8.45 8.45 0 0 0-.75 1.372 3.611 3.611 0 0 0-.225.66 5.644 5.644 0 0 1-.24.863c-.068.18-.383-.105-.36-.48.112-.638.338-1.25.667-1.808.21-.33.383-.69.608-1.012.243-.356.513-.692.81-1.005.18-.195.37-.38.57-.555a7.61 7.61 0 0 1 .975-.75c.257-.173.53-.319.817-.435l.195-.075c.255 0 .345 0 .413.045l.045.052c0 .053-.06.128-.218.21-.463.245-.909.52-1.335.825a7.522 7.522 0 0 0-.907.788l-.03.022ZM29.7 29.813c.113.435.21.877.3 1.327 0 .158.083.315.113.48.09.578.158 1.155.225 1.733l.09.75c.05.33.05.666 0 .997 0 .203-.322-.067-.397-.42-.113-.637-.248-1.275-.3-1.935-.06-.402-.145-.8-.255-1.192a41.17 41.17 0 0 0-.293-1.313c-.075-.262-.135-.532-.217-.795-.12-.397-.24-.802-.398-1.185a6.28 6.28 0 0 0-.442-.832l-.105-.173c-.12-.217-.113-.315 0-.442a.327.327 0 0 1 .06-.083c.067-.082.202-.037.367.105a4.63 4.63 0 0 1 .863 1.665c.157.435.285.878.405 1.32l-.015-.007Zm30.891 4.237c-.133-.446-.24-.9-.322-1.358l-.098-.487c-.082-.593-.12-1.178-.172-1.763 0-.255-.046-.517-.076-.75a7.297 7.297 0 0 1-.06-.99c0-.21.368 0 .413.405.067.668.135 1.328.172 2.003.04.408.103.814.188 1.215.074.445.172.885.292 1.32.083.27.166.532.263.787.154.392.334.773.54 1.14.157.285.345.555.517.833l.113.18c.135.24.143.33.053.435a.29.29 0 0 1-.06.075c-.075.067-.196 0-.308-.15a12.101 12.101 0 0 1-.938-1.56 9.026 9.026 0 0 1-.524-1.313l.007-.022Z" fill="#fff"/><path d="M13.716 39.217c.93 1.808 1.965 3.6 3 5.385 1.035 1.785 2.115 3.57 3 5.483.668 1.365 1.35 2.722 1.943 4.132a38.311 38.311 0 0 1 2.415 7.74c.26 1.336.414 2.69.457 4.05a28.153 28.153 0 0 1-.225 4.065 40.717 40.717 0 0 1-1.552 6.998 34.664 34.664 0 0 1-3.705 8.325c-.503.802-.69.547-.578-.293a16.684 16.684 0 0 1 1.125-3.847A44.996 44.996 0 0 0 22.5 72.75c.684-2.92.882-5.933.585-8.918-.39-3.592-1.808-7.177-3.353-10.582a111.16 111.16 0 0 0-1.327-2.813c-.443-.93-.945-1.815-1.455-2.722l-3.105-5.438a61.528 61.528 0 0 1-1.44-2.7c-.225-.465-.45-.922-.653-1.41a12.721 12.721 0 0 1-.27-.75 1.582 1.582 0 0 1 0-1.012 2.948 2.948 0 0 1 1.23-1.5 2.866 2.866 0 0 1 1.65-.345 5.298 5.298 0 0 1 1.545.375c.94.409 1.798.983 2.535 1.695a12.382 12.382 0 0 1 3.203 5.01l.15.457c.037.128.075.263.105.39a.247.247 0 0 0 .157.21l.135.068.218.09.93.375c.638.258 1.26.556 1.86.892a11.888 11.888 0 0 1 4.365 4.35 9.26 9.26 0 0 1 1.012 2.498c.127.405.127.84 0 1.245a2.247 2.247 0 0 1-.15.39c-.21.292-.66-.623-1.357-2.168a11.641 11.641 0 0 0-3.195-4.147 11.511 11.511 0 0 0-2.25-1.418c-.413-.202-.833-.367-1.275-.562-.225-.09-.458-.18-.75-.308a2.496 2.496 0 0 1-.593-.382.75.75 0 0 1-.21-.285 2.115 2.115 0 0 1-.15-.315l-.097-.42c0-.098-.053-.188-.083-.278-.03-.09-.105-.367-.172-.547a9.33 9.33 0 0 0-.45-1.058c-.335-.7-.745-1.36-1.223-1.972a8.445 8.445 0 0 0-3.142-2.595 2.776 2.776 0 0 0-1.703-.248 1.258 1.258 0 0 0-.592.33c-.09.08-.166.173-.225.278 0 .052-.068.105-.098.165l-.112.075c.014.086.034.172.06.255.075.217.165.457.27.697.21.48.45.975.705 1.5l-.068.015Zm72.534 4.68c-1.034 1.41-2.092 2.798-3 4.223-.224.352-.45.75-.644 1.072-.2.355-.364.73-.488 1.118a17.685 17.685 0 0 0-.75 2.407 16.467 16.467 0 0 0-.375 1.808l-.232 1.837c-.165 2.195-.12 4.4.135 6.585.267 2.206.696 4.39 1.282 6.533a54.881 54.881 0 0 0 1.845 5.632c.9 2.363 1.973 4.665 2.753 7.095.247.75 0 .75-.555.24a9.892 9.892 0 0 1-1.89-2.865c-1.988-4.8-3.75-9.795-4.5-15.075a34.628 34.628 0 0 1-.218-9.75c.262-1.8.74-3.563 1.425-5.25.353-.84.796-1.64 1.32-2.385a51.258 51.258 0 0 1 1.538-2.175l1.92-2.617a20.203 20.203 0 0 0 1.717-2.58c.065-.133.118-.27.158-.413a.27.27 0 0 0 0-.27c-.045-.052-.15-.217-.248-.322a2.213 2.213 0 0 0-.352-.293 2.44 2.44 0 0 0-.42-.21l-.458-.127a3.796 3.796 0 0 0-1.942.27 7.111 7.111 0 0 0-3.143 2.602 6.074 6.074 0 0 0-.412.653c-.14.217-.26.445-.36.682-.098.233-.225.458-.3.698l-.278.75-.09.18c-.06 0-.082.105-.135.142a1.286 1.286 0 0 1-.322.225l-.458.278c-.3.18-.577.382-.855.585-.538.42-1.04.883-1.5 1.387-.344.393-.665.806-.96 1.238-1.095 1.62-1.305 2.25-1.845 2.467a2.434 2.434 0 0 1-.33.18c-.15.045-.195-.142-.157-.54a5.06 5.06 0 0 1 .585-1.695 12.056 12.056 0 0 1 4.575-4.86l.345-.202a1.56 1.56 0 0 1 .097-.278l.15-.412c.105-.278.255-.54.383-.81.13-.26.279-.51.442-.75a6.21 6.21 0 0 1 .51-.75 8.672 8.672 0 0 1 2.715-2.468 5.678 5.678 0 0 1 2.94-.802c.566.011 1.12.155 1.62.42.276.123.529.29.75.495.12.087.223.194.308.315l.33.427c.086.192.14.398.157.608a2.25 2.25 0 0 1-.082.615c-.077.258-.178.51-.3.75-.21.423-.448.831-.713 1.222a52.57 52.57 0 0 1-1.537 2.213l-.15-.053Z" fill="#fff"/><path d="M22.895 19.598a7.338 7.338 0 0 0-1.192-1.215 5.15 5.15 0 0 0-.66-.42 2.723 2.723 0 0 0-.293-.113h-.12a.15.15 0 0 0-.127.112 1.96 1.96 0 0 0-.105.653 9.5 9.5 0 0 0 .157 1.74c.075.435.173.87.278 1.313.105.442.225.922.315 1.35.697 3.134 1.5 6.314 2.07 9.532.262 1.425.495 2.873.675 4.305.195 1.838.412 3.795-.285 5.655-.21.578-.465.367-.645-.172a8.041 8.041 0 0 1-.353-2.378c0-1.814-.15-3.626-.45-5.415-.285-1.823-.63-3.653-.975-5.505-.412-2.205-1.117-4.5-1.597-6.75a14.783 14.783 0 0 1-.518-3.938c.011-.421.127-.834.338-1.2a1.298 1.298 0 0 1 1.275-.622c.743.136 1.435.47 2.002.967a14.386 14.386 0 0 1 3 3.81 39.968 39.968 0 0 1 3 6.54 44.41 44.41 0 0 1 1.635 5.25c.083.398.165.795.233 1.2a5.816 5.816 0 0 1 0 1.643 1.237 1.237 0 0 1-.383.75 2.529 2.529 0 0 1-.202.203c-.18.12-.473-.48-.653-1.5a49.77 49.77 0 0 0-2.872-9.346 36.088 36.088 0 0 0-1.575-3.36c-.278-.555-.615-1.057-.923-1.59a15.001 15.001 0 0 0-1.065-1.447l.015-.052Z" fill="#fff"/><path d="M31.544 20.19a25.556 25.556 0 0 0-1.238-2.903 11.202 11.202 0 0 0-1.71-2.52 2.205 2.205 0 0 0-1.417-.817.413.413 0 0 0-.3.18c-.071.223-.1.457-.083.69.03.66.113 1.317.248 1.965.255 1.342.6 2.7.937 4.065.3 1.207.623 2.422.9 3.645.184.79.315 1.592.39 2.4a6.105 6.105 0 0 1-.24 2.505c-.225.517-.397.315-.525-.128a13.498 13.498 0 0 1-.502-1.98c-.495-3-1.5-6.097-2.13-9.345a22.162 22.162 0 0 1-.465-3.082c-.012-.31.018-.62.09-.923.076-.4.3-.757.63-.997a1.73 1.73 0 0 1 1.072-.383c.35-.004.697.073 1.013.225.572.28 1.083.674 1.5 1.155.386.434.732.9 1.035 1.395a20.06 20.06 0 0 1 1.567 3c.53 1.269.981 2.569 1.35 3.893a52.65 52.65 0 0 1 1.283 6.052c.247 1.568.517 3.113.675 4.68.045.345.082.683.105 1.035.097 1.298 0 1.71-.398 1.995-.08.073-.168.136-.262.188-.285.12-.555-.398-.66-1.32-.353-2.745-.66-5.61-1.223-8.46a39.753 39.753 0 0 0-1.687-6.195l.045-.015Zm8.331 8.865c-.09-.75-.195-1.5-.323-2.205-.127-.705-.262-1.5-.42-2.25-.112-.533-.277-1.05-.405-1.583a23.26 23.26 0 0 0-.81-2.722 7.424 7.424 0 0 0-.577-1.23 1.657 1.657 0 0 0-.75-.75.398.398 0 0 0-.3.052c-.13.081-.247.183-.345.3a2.527 2.527 0 0 0-.435.998c-.225.998-.113 2.108-.503 3.248-.135.36-.315.232-.487-.09a3.419 3.419 0 0 1-.465-1.5c.002-.603.047-1.204.135-1.8.094-.734.414-1.42.915-1.965.158-.151.331-.284.517-.398.23-.13.486-.21.75-.233a1.881 1.881 0 0 1 1.365.533 4.86 4.86 0 0 1 1.073 1.688 34.48 34.48 0 0 1 1.372 4.072c.383 1.5.675 3 .938 4.538.157.945.277 1.89.375 2.835.142 1.432.202 2.88.255 4.312 0 1.11.112 2.205.09 3.315.015.25.015.5 0 .75-.083.915-.308 1.185-.675 1.32-.08.034-.163.062-.248.083-.127 0-.225-.068-.315-.248a1.778 1.778 0 0 1-.165-.75c-.075-1.905-.052-3.877-.18-5.888-.09-1.5-.225-3-.435-4.5l.053.068Z" fill="#fff"/><path d="M44.836 52.883c.083-2.438-.12-4.92-.21-7.44 0-.923-.082-1.845-.045-2.775.143-3.218.225-6.413.06-9.593a18.233 18.233 0 0 0-.6-4.11 3.169 3.169 0 0 0-.21-.555.51.51 0 0 0-.105-.165.351.351 0 0 0-.112-.097.24.24 0 0 0-.263 0 .654.654 0 0 0-.112.09c-.066.057-.126.12-.18.187A7.906 7.906 0 0 0 42 30.75c-.232.548-.397.39-.487-.127a5.312 5.312 0 0 1-.105-1.058 2.94 2.94 0 0 1 .397-1.59c.162-.278.364-.531.6-.75l.27-.217c.098-.06.203-.098.3-.15.197-.101.418-.145.638-.128a1.499 1.499 0 0 1 1.11.638l.202.27.113.202c.072.127.132.26.18.398.32.948.52 1.934.592 2.932.155 1.886.183 3.78.083 5.67 0 1.133-.068 2.25-.098 3.428a135.81 135.81 0 0 0-.045 3.45c0 2.482.255 4.995.293 7.537a26.877 26.877 0 0 1-.293 4.71 15.83 15.83 0 0 1-.937 3.48 16.84 16.84 0 0 1-1.718 3.15 18.32 18.32 0 0 1-1.725 2.153 15.132 15.132 0 0 1-2.047 1.867c-.323.255-.66.473-1.005.705-1.335.75-1.883.795-2.295.578a1.223 1.223 0 0 1-.278-.158c-.217-.217.278-.6 1.163-1.11a15.817 15.817 0 0 0 6.367-6.75 16.446 16.446 0 0 0 1.5-6.982l.06-.015Zm-5.838 22.034c-.12 1.013-.262 2.018-.345 3 0 .368-.037.75-.06 1.11a69.329 69.329 0 0 0-.247 3.938v1.74c0 .75.09 1.5.067 2.175 0 .172-.172.277-.412.112a1.5 1.5 0 0 1-.563-.975 20.762 20.762 0 0 1-.06-4.627c.083-.923.053-1.883.098-2.828.045-.945.135-2.077.232-3.112l.233-1.905c.12-.968.3-1.928.442-2.88.135-.75.195-1.5.368-2.25a3.86 3.86 0 0 1 .097-.495c.225-.6.42-.75.75-.75.068-.004.136-.004.203 0 .202.037.292.345.262.75-.187 1.245-.457 2.542-.637 3.9a59.15 59.15 0 0 0-.398 3l-.03.097Z" fill="#fff"/><path d="M27.374 79.095c.964.342 1.945.633 2.94.87.367.075.75.12 1.102.188 1.279.279 2.585.41 3.893.39a7.503 7.503 0 0 0 1.695-.256c.705-.202 1.357-.472 2.032-.75.218-.075.33.135.278.45a1.38 1.38 0 0 1-.75.975 6.934 6.934 0 0 1-2.415.683 9.995 9.995 0 0 1-2.46 0c-.968-.113-1.965-.15-2.933-.33a29.151 29.151 0 0 1-3.12-.75c-.637-.195-1.252-.413-1.875-.623-.937-.337-1.86-.75-2.767-1.102-.713-.293-1.44-.525-2.145-.863a4.494 4.494 0 0 1-.458-.24c-.547-.375-.66-.652-.547-.975.025-.07.057-.138.097-.202.15-.173.405-.165.803-.045 1.185.397 2.422 1.005 3.705 1.5.952.382 1.912.75 2.895 1.065l.03.015ZM54.39 41.25a59.89 59.89 0 0 0 1.327 3.502c.488 1.155 1.02 2.355 1.403 3.585.292.893.585 1.785.825 2.678.42 1.582.802 3.157 1.312 4.665A20.053 20.053 0 0 0 61.252 60a12.97 12.97 0 0 0 2.738 3.142 13.284 13.284 0 0 0 4.702 2.325c.51.255.443.376-.097.578a2.701 2.701 0 0 1-1.11.18 6.877 6.877 0 0 1-.75-.067 7.091 7.091 0 0 1-.75-.233 12.196 12.196 0 0 1-4.74-3.675 18.002 18.002 0 0 1-2.79-5.167c-.75-2.206-1.373-4.5-2.048-6.69a31.233 31.233 0 0 0-1.245-3.533c-.487-1.163-1.05-2.34-1.5-3.54-.292-.75-.57-1.5-.817-2.25a62.65 62.65 0 0 1-.705-2.25c-.165-.578-.278-1.178-.42-1.763a12.944 12.944 0 0 1-.293-1.792 11.059 11.059 0 0 1 .068-3.683c.096-.502.279-.984.54-1.425a1.387 1.387 0 0 1 1.627-.75 2 2 0 0 1 .75.585c.162.2.308.414.435.638.242.407.46.828.653 1.26l.487 1.11c.278.675.465 1.08.563 1.35.074.199.11.41.105.622.02.103.06.2.12.285a.133.133 0 0 1 .022.114.134.134 0 0 1-.075.089.586.586 0 0 1-.472 0 2.25 2.25 0 0 1-1.073-1.072c-.427-.75-.75-1.5-1.087-2.25a9.443 9.443 0 0 0-.54-.998 2.244 2.244 0 0 0-.248-.323s.045-.044-.06.105c-.154.279-.263.58-.322.893a8.296 8.296 0 0 0-.113 2.25 28.65 28.65 0 0 0 1.62 7.185h-.037Z" fill="#fff"/><path d="M56.332 24.33c-.043 1.529 0 3.059.128 4.582.045.563.142 1.118.202 1.673a58.24 58.24 0 0 0 .908 5.91c.195.862.42 1.725.675 2.557.165.54.36 1.065.555 1.583.171.51.37 1.01.592 1.5.143.27 0 .39-.337.255a2.655 2.655 0 0 1-1.193-1.14 21.692 21.692 0 0 1-1.222-3.353 30.391 30.391 0 0 1-.698-3.48c-.195-1.395-.525-2.835-.75-4.267a38.915 38.915 0 0 1-.345-4.77 22.063 22.063 0 0 1 .15-3 8.496 8.496 0 0 1 .555-2.25c.174-.401.43-.761.75-1.058a2 2 0 0 1 1.29-.525 1.5 1.5 0 0 1 1.08.473c.232.251.426.534.578.84.238.533.446 1.079.622 1.635.083.232.173.457.248.69.285.862.24 1.162-.068 1.5a1.35 1.35 0 0 1-.202.21c-.12.08-.263.057-.428-.068a1.643 1.643 0 0 1-.495-.667c-.42-.923-.75-1.995-1.072-2.76a1.071 1.071 0 0 0-.24-.368c-.135 0-.248.045-.435.323a4.702 4.702 0 0 0-.585 1.792 15.291 15.291 0 0 0-.188 2.25l-.075-.067Z" fill="#fff"/><path d="M63.875 16.605a10.585 10.585 0 0 0-.27-1.538 2.266 2.266 0 0 0-.105-.337l-.067-.165c0-.038-.045-.083-.09-.075a.384.384 0 0 0-.165.037 1.64 1.64 0 0 0-.323.113 2.25 2.25 0 0 0-.577.45 4.5 4.5 0 0 0-.84 1.5 12.388 12.388 0 0 0-.54 2.505c-.35 3.139-.294 6.31.165 9.435.186 1.396.45 2.78.787 4.147.458 1.74.99 3.45 1.5 5.153.173.532-.037.562-.472.232a4.799 4.799 0 0 1-1.5-2.07 31.211 31.211 0 0 1-1.38-5.475 38.328 38.328 0 0 1-.585-5.64c-.147-2.335-.06-4.68.262-6.997a9.285 9.285 0 0 1 1.005-2.925 4.341 4.341 0 0 1 1.08-1.275c.23-.171.483-.31.75-.413a4.25 4.25 0 0 1 .428-.135l.54-.06a1.193 1.193 0 0 1 1.087.66c.1.168.185.344.255.525.06.158.105.315.15.465a22.84 22.84 0 0 1 .6 4.718c.06 1.185 0 2.37.068 3.525.024 1.154.117 2.306.277 3.45.272 1.736.722 3.44 1.343 5.085l.42 1.08c.525 1.342.57 1.822.345 2.25a1.68 1.68 0 0 1-.158.285c-.202.24-.675-.218-1.177-1.193a25.048 25.048 0 0 1-1.718-4.672 28.888 28.888 0 0 1-.75-5.138c-.09-1.282-.075-2.587-.105-3.795a42.83 42.83 0 0 0-.262-3.667l.022-.045Zm8.988 8.49c-.105-1.2-.217-2.385-.36-3.57a21.294 21.294 0 0 0-.63-3.412 3 3 0 0 0-.345-.75.173.173 0 0 0-.217-.075.826.826 0 0 0-.203.112 3.15 3.15 0 0 0-1.087 1.5 10.713 10.713 0 0 0-.585 2.1 26.603 26.603 0 0 0-.36 4.5c.002 1.356.087 2.712.255 4.058.112.855.247 1.717.367 2.572s.278 1.695.39 2.55c.09.517-.097.525-.472.15a5.468 5.468 0 0 1-.615-.788 5.048 5.048 0 0 1-.518-1.32 28.753 28.753 0 0 1-.682-5.415 28.3 28.3 0 0 1 .262-5.505c.142-1.034.37-2.055.683-3.052.184-.53.436-1.034.75-1.5l.277-.36c.105-.113.225-.218.338-.33.124-.1.254-.194.39-.277a.857.857 0 0 1 .217-.113l.315-.135c.263-.09.548-.09.81 0 .23.095.433.244.593.435.138.161.254.34.345.533.147.304.267.62.36.945a16.9 16.9 0 0 1 .405 1.837c.21 1.223.345 2.43.472 3.637l.435 4.456c.218 2.25.405 4.5.75 6.705.291 1.679.71 3.334 1.253 4.95.127.352.262.682.397 1.027.518 1.26.75 1.605.6 2.04a1.447 1.447 0 0 1-.067.285c-.09.263-.675-.09-1.208-1.065-1.5-2.888-1.98-6.195-2.512-9.428a119.934 119.934 0 0 1-.495-3.622c-.15-1.207-.24-2.422-.36-3.622l.052-.053ZM69.75 78.052A39.57 39.57 0 0 0 69 75.45c-.097-.323-.232-.623-.322-.938a78.48 78.48 0 0 0-1.035-3.337c-.157-.488-.36-.968-.562-1.44a15.556 15.556 0 0 1-.75-1.808c-.06-.187.15-.285.435-.232a1.214 1.214 0 0 1 .825.6 18.246 18.246 0 0 1 1.5 3.795c.21.795.562 1.575.832 2.362.27.788.563 1.755.818 2.64l.51 1.658c.217.84.435 1.672.645 2.505.157.645.397 1.26.532 1.927 0 .143.068.285.09.435.045.57-.045.75-.352.885-.069.03-.139.055-.21.075-.233.053-.45-.165-.57-.517-.39-1.05-.668-2.19-.975-3.353-.233-.87-.45-1.747-.698-2.617l.038-.038Z" fill="#fff"/><path d="M79.328 77.73a14.91 14.91 0 0 1-2.52.833c-.308.082-.615.165-.93.225-1.104.176-2.22.264-3.338.262h-1.5a5.94 5.94 0 0 1-1.882-.217c-.188-.068-.12-.293.075-.503a1.199 1.199 0 0 1 .847-.405h3.63c.376.004.75-.034 1.118-.112.367-.06.75-.158 1.102-.24a16.423 16.423 0 0 0 2.363-.705c.471-.187.93-.405 1.372-.653a8.79 8.79 0 0 0 .968-.615c.318-.218.612-.47.877-.75a8.394 8.394 0 0 0 1.073-1.35c.067-.105.112-.225.18-.33.24-.405.412-.472.75-.435h.202c.203.053.263.315.143.698a6.3 6.3 0 0 1-2.153 2.872 8.855 8.855 0 0 1-1.125.75l-.592.345-.615.285-.045.045ZM34.731 40.013c-.5-.027-1-.027-1.5 0-.18 0-.36.044-.54.06a16.5 16.5 0 0 0-1.897.262 5.95 5.95 0 0 0-.81.248c-.33.154-.67.281-1.02.382-.225.052-.203-.57.187-.75a7.237 7.237 0 0 1 2.25-.705c.465-.06.938-.172 1.41-.232.473-.06 1.043-.083 1.56-.09h.96l1.418.037h1.35c.3 0 .39.09.435.307v.15c0 .173-.128.3-.345.33a11.77 11.77 0 0 1-2.003.098c-.495 0-.997-.045-1.5-.045l.045-.052Zm28.807-.166c.413-.24.847-.465 1.29-.667.157-.083.315-.172.48-.24a8.203 8.203 0 0 1 1.845-.51c.277-.038.555-.09.84-.112a2.07 2.07 0 0 1 1.088.127c.112.045.052.225-.068.405-.12.18-.3.36-.465.367-.608.068-1.207.083-1.868.196a4.02 4.02 0 0 0-1.132.434c-.418.192-.826.405-1.222.638a28.32 28.32 0 0 0-.75.45c-.373.228-.731.478-1.073.75-.255.21-.487.457-.75.667-.06.053-.105.106-.165.15-.218.173-.337.158-.502.06 0 0-.075-.044-.105-.075-.03-.03-.098-.255 0-.442.175-.263.368-.513.577-.75.237-.225.488-.435.75-.63a13.55 13.55 0 0 1 1.2-.825l.03.007ZM12.397 10.342c1.463 1.005 3.06 1.943 4.005 3.495.488.803 1.755.068 1.26-.75-1.08-1.777-2.85-2.872-4.5-4.027-.75-.533-1.5.75-.75 1.267l-.015.015Zm-5.648 12.78c1.86-.27 3.75 0 5.625-.082a.75.75 0 0 0 0-1.463c-2.018.068-4.005-.157-6 .135-.93.135-.533 1.545.39 1.41h-.015Zm73.125-14.64c-1.14 1.605-2.385 3.188-2.79 5.168-.188.915 1.222 1.312 1.41.39.382-1.845 1.575-3.323 2.64-4.823.547-.75-.75-1.5-1.26-.75v.015Zm9.376 8.723c-1.913.398-3.653 1.29-5.506 1.898-.885.3-.502 1.71.39 1.41 1.853-.608 3.593-1.5 5.505-1.898.923-.188.533-1.598-.39-1.41ZM28.921 85.02a.688.688 0 0 0 .06-.188c0-.075-.052-.12-.09-.112-.037.008-.12.067-.187.165l-.098.157c-.104.16-.194.328-.27.503a8.416 8.416 0 0 1-.75 1.207c-.214.31-.51.553-.855.706a1.17 1.17 0 0 1-.517.082 1.089 1.089 0 0 1-.525-.15 1.426 1.426 0 0 1-.21-.127l-.128-.12a1.641 1.641 0 0 1-.202-.248c-.053-.09-.12-.188-.158-.27l-.142-.3a2.356 2.356 0 0 1 0-1.282 6.63 6.63 0 0 1 .262-.893c.203-.54.428-1.035.638-1.5.207-.429.375-.876.502-1.335a1.69 1.69 0 0 0 0-.225c0-.045 0 0 0 0 .061-.013.122-.03.18-.053a.285.285 0 0 0 .098-.044h.037v.067l-.082.195h-.113a.306.306 0 0 0-.232.083 1.576 1.576 0 0 0-.375.397c-.252.391-.46.809-.623 1.245l-.54 1.44c-.097.248-.195.502-.33.75a2.1 2.1 0 0 1-.75.832c-.167.085-.34.157-.517.218a1.298 1.298 0 0 1-.293.067 1.074 1.074 0 0 1-.39 0 .968.968 0 0 1-.495-.195.938.938 0 0 1-.307-.434 1.448 1.448 0 0 1-.083-.675 7.589 7.589 0 0 1 .458-1.808c.322-.907.66-1.793.945-2.662a5.63 5.63 0 0 0 .27-1.23v-.113a.218.218 0 0 1 0-.067l.105-.068a.122.122 0 0 0 0 .06v.067a.226.226 0 0 0-.098 0c-.36.346-.642.766-.825 1.23-.247.518-.472 1.073-.705 1.628-.232.555-.457 1.118-.75 1.68a6.44 6.44 0 0 1-.51.825 2.49 2.49 0 0 1-.832.75.945.945 0 0 1-.39.112.678.678 0 0 1-.248-.052c-.127-.067-.165-.135-.15-.203.015-.067.308-.225.398-.517a24.24 24.24 0 0 1 .802-2.88c.41-1.096.928-2.148 1.545-3.142.243-.35.558-.644.923-.863a1.77 1.77 0 0 1 .42-.18 1.96 1.96 0 0 1 .517-.06 1.545 1.545 0 0 1 1.14.578c.117.16.206.34.263.532.034.136.06.273.075.413.02.204.02.41 0 .614-.041.322-.106.64-.195.953-.3 1.155-.75 2.145-1.14 3.135a6.443 6.443 0 0 0-.383 1.313v.044l-.247.06a.547.547 0 0 0-.188.06.688.688 0 0 1-.097.053c-.045.06 0 0 0 0a.098.098 0 0 0 0-.06.515.515 0 0 0 .037-.21v-.255h.278c.052 0 .06 0 .195-.233.135-.232.21-.434.315-.682.277-.66.532-1.388.877-2.123a6.48 6.48 0 0 1 .675-1.124c.168-.22.367-.412.593-.57l.427-.21.465-.12h.48c.191.024.374.093.533.202.21.134.374.327.472.555.077.173.12.359.128.547.006.49-.078.975-.248 1.433-.27.75-.592 1.5-.855 2.168-.21.525-.435 1.154-.337 1.245v.074s.045.098.037.068c-.062.06-.12.126-.172.195a.263.263 0 0 0-.083.15.255.255 0 0 0-.045-.15c0-.06-.112-.248-.12-.225a.381.381 0 0 0 .105-.097c.088-.104.169-.215.24-.33.165-.248.323-.533.48-.825l.683-1.328A9.753 9.753 0 0 1 29.086 81c.195-.222.417-.418.66-.585.238-.185.531-.285.833-.285a1.013 1.013 0 0 1 .75.33c.145.171.231.384.247.608.04.451.01.907-.09 1.35-.15.693-.358 1.373-.622 2.032-.14.366-.26.739-.36 1.117a2.788 2.788 0 0 0-.083.623v.15c.014.04.035.078.06.112 0 .083.083 0-.09.195-.045.038-.052.15-.052.098.01-.04.01-.08 0-.12 0-.045-.038 0-.075-.12l.045-.045a.748.748 0 0 0 .12-.157c.097-.145.184-.295.262-.45.345-.668.63-1.35.983-2.123.224-.483.474-.954.75-1.41.235-.39.517-.75.84-1.072a1.763 1.763 0 0 1 1.042-.526 1.38 1.38 0 0 1 1.103.578c.206.591.235 1.23.082 1.838-.06.382-.172.794-.27 1.215l-.255 1.042c-.065.246-.11.497-.135.75a.892.892 0 0 0 0 .142h-.082a.813.813 0 0 0-.18.053c-.165 0-.248.172-.195.075a.745.745 0 0 0 0-.188 1.37 1.37 0 0 0-.068-.3l.173-.135a.837.837 0 0 0 .195-.202 2.77 2.77 0 0 0 .352-.593c.181-.445.336-.901.465-1.365.168-.738.49-1.434.945-2.04.093-.105.196-.2.308-.284a1.75 1.75 0 0 1 .33-.173.9.9 0 0 1 .585 0 .855.855 0 0 1 .337.247c.09.158-.097.308-.172.51-.075.203-.165.473-.323 1.126-.112.465-.232.982-.39 1.5a7.497 7.497 0 0 1-.69 1.74c-.2.335-.453.637-.75.892a3.683 3.683 0 0 1-.562.382c-.064.032-.129.06-.195.083l-.278.083c-.154.019-.31.019-.465 0a1.501 1.501 0 0 1-.63-.263 1.5 1.5 0 0 1-.39-.472c0-.075-.067-.15-.097-.225l-.038-.15a2.566 2.566 0 0 1-.045-.473 3.94 3.94 0 0 1 .06-.593c.05-.308.114-.613.195-.915l.083-.322-.54 1.215c-.165.397-.33.795-.548 1.222a4.425 4.425 0 0 1-.405.698c-.05.072-.104.14-.165.203a1.35 1.35 0 0 1-.232.232 1.499 1.499 0 0 1-1.118.42 1.5 1.5 0 0 1-.75-.233.833.833 0 0 1-.217-.172 1.648 1.648 0 0 1-.158-.165 2.063 2.063 0 0 1-.352-.563 2.446 2.446 0 0 1-.18-1.17 3.75 3.75 0 0 1 .052-.434v-.248l.075-.135.15-.135Z" fill="#fff"/><path d="M79.066 78.3a1.846 1.846 0 0 0-.112-.27.834.834 0 0 0 .21-.218.404.404 0 0 0 .112-.157.239.239 0 0 0 0-.068.142.142 0 0 0 0 .075v-.067c.04.044.089.08.143.105.08.05.165.09.255.12a.858.858 0 0 0 0 .12c-.008.125-.008.25 0 .375v.592l.247 1.883c.077.528.107 1.063.09 1.597a3.05 3.05 0 0 1-.18.96 2.144 2.144 0 0 1-.322.608c-.082.108-.184.2-.3.27a1.2 1.2 0 0 1-.533.157.878.878 0 0 1-.487-.187 1.846 1.846 0 0 1-.315-.24 3.465 3.465 0 0 1-.75-1.208c-.24-.652-.465-1.5-.668-2.25-.105-.345-.24-.75-.345-.99a2.033 2.033 0 0 0-.21-.39l-.067-.082a.554.554 0 0 1 .06-.12v-.068a.304.304 0 0 0 0 .075c0 .053.052.113 0 .098l-.09.067-.068.075-.037.038-.405-.323a.143.143 0 0 0 .067 0c.076.025.154.045.233.06h.15v.068c.017.171.045.342.082.51.207.809.36 1.63.458 2.46a3.12 3.12 0 0 1-.24 1.65 1.538 1.538 0 0 1-1.38.802 1.065 1.065 0 0 1-.833-.352 2.887 2.887 0 0 1-.57-1.5c-.06-.405-.097-.795-.142-1.17-.045-.375-.09-.75-.165-1.095-.05-.3-.162-.587-.33-.84a.285.285 0 0 0-.248-.128v-.097c.04.036.085.064.135.082v.045c-.006.42.044.839.15 1.245.117.495.207.996.27 1.5a4.14 4.14 0 0 1 0 .818 1.5 1.5 0 0 1-.345.93.608.608 0 0 1-.472.21c-.105 0-.143 0-.15-.09-.008-.09.18-.255.202-.48 0-.398-.472-1.118-.802-2.205a11.917 11.917 0 0 1-.285-1.11 3.54 3.54 0 0 1-.083-.683c-.03-.417.105-.829.375-1.147.198-.216.462-.361.75-.413.11-.013.22-.013.33 0 .096.005.191.018.285.038.376.075.718.27.975.555.335.404.562.886.66 1.402.139.744.234 1.495.285 2.25v.42a.106.106 0 0 0 .053.098.128.128 0 0 0 .153-.05.128.128 0 0 0 .02-.055.64.64 0 0 0 0-.113v-.367c0-.248-.06-.518-.106-.75-.09-.578-.24-1.14-.36-1.83a1.963 1.963 0 0 1 0-.75.916.916 0 0 1 .188-.345l.097-.113a1.47 1.47 0 0 1 .248-.225 1.32 1.32 0 0 1 .84-.322c.324.006.633.138.862.367.16.15.3.322.413.51l.135.24.082.15c0 .098.075.188.105.285.03.098.12.383.18.6.06.218.068.24.12.368.053.127.105.3.248.27.142-.03.157-.158.172-.255a1.67 1.67 0 0 0 0-.338c0-.232-.045-.48-.067-.75v-.495c-.03-.402.002-.807.097-1.2a1.33 1.33 0 0 1 .24-.487c.155-.196.377-.327.623-.368a.975.975 0 0 1 .69.158c.148.099.276.226.375.375a4.5 4.5 0 0 1 .555 1.327c.24.833.405 1.65.63 2.438.135.55.347 1.077.63 1.567.15.188.232.24.322.233.09-.008.06.097.12-.128a4.45 4.45 0 0 0-.36-1.605c-.21-.562-.48-1.132-.75-1.717a13.4 13.4 0 0 1-.555-1.44 2.063 2.063 0 0 1-.075-.975c.032-.125.083-.243.15-.353a1.2 1.2 0 0 1 .323-.292c.145-.081.298-.147.457-.195a1.453 1.453 0 0 1 1.163.15c.28.18.52.418.705.697.29.44.541.904.75 1.388l.532 1.125c.668 1.342.825 1.387.818 2.017 0 .128.06.263.067.383.008.12-.157.315-.57.262a2.205 2.205 0 0 1-1.335-.99c-.5-.778-.922-1.605-1.26-2.467a5.716 5.716 0 0 0-.502-.938l-.083-.082c-.045 0 .083-.128.098-.195a.357.357 0 0 0 0 .09.383.383 0 0 0 0 .165h-.053c-.622-1.148-.172-.323-.307-.578-.045-.045.045.045.105.053.11.033.223.058.337.075h.218v.052c.014.069.031.136.052.203.131.377.281.748.45 1.11l.578 1.237c.207.46.385.934.532 1.418.15.442.227.905.225 1.372a2.08 2.08 0 0 1-.382 1.155 1.748 1.748 0 0 1-1.283.668 1.905 1.905 0 0 1-1.207-.285 2.497 2.497 0 0 1-.698-.668 4.38 4.38 0 0 1-.577-1.207 18.475 18.475 0 0 1-.533-2.108 14.79 14.79 0 0 0-.457-1.83l.172-.052Z" fill="#fff"/></svg>