<svg width="32" height="32" fill="none" xmlns="http://www.w3.org/2000/svg"><path d="M11.057 4C7.183 4 4 7.179 4 11.057v9.886C4 24.817 7.179 28 11.057 28h9.886C24.817 28 28 24.821 28 20.943v-9.886C28 7.183 24.821 4 20.943 4h-9.886Zm0 2.182h9.886a4.869 4.869 0 0 1 4.875 4.875v9.886a4.869 4.869 0 0 1-4.875 4.875h-9.886a4.869 4.869 0 0 1-4.875-4.875v-9.886a4.869 4.869 0 0 1 4.875-4.875Zm11.386 2.386a.984.984 0 0 0-.989.989c0 .55.44.989.99.989.549 0 .988-.44.988-.99a.984.984 0 0 0-.989-.988ZM16 9.455c-3.6 0-6.545 2.944-6.545 6.545 0 3.6 2.944 6.546 6.545 6.546 3.6 0 6.546-2.945 6.546-6.546 0-3.6-2.945-6.545-6.546-6.545Zm0 2.181A4.345 4.345 0 0 1 20.364 16 4.345 4.345 0 0 1 16 20.364 4.345 4.345 0 0 1 11.636 16 4.345 4.345 0 0 1 16 11.636Z" fill="#4E4D4B"/></svg>