<svg width="32" height="32" fill="none" xmlns="http://www.w3.org/2000/svg"><path d="M25.818 4H6.182A2.181 2.181 0 0 0 4 6.182v19.636A2.18 2.18 0 0 0 6.182 28h19.636A2.181 2.181 0 0 0 28 25.818V6.182A2.181 2.181 0 0 0 25.818 4ZM11.586 23.636H8.368V13.282h3.218v10.354ZM9.944 11.801a1.876 1.876 0 1 1 0-3.752 1.876 1.876 0 0 1 0 3.752Zm13.697 11.835h-3.216v-5.035c0-1.201-.022-2.746-1.673-2.746-1.674 0-1.932 1.308-1.932 2.659v5.122h-3.216V13.282h3.088v1.414h.043c.43-.813 1.48-1.672 3.045-1.672 3.258 0 3.86 2.145 3.86 4.933v5.68Z" fill="#4E4D4B"/></svg>