<svg width="96" height="96" fill="none" xmlns="http://www.w3.org/2000/svg"><path d="M35.202 17.775h11.752l11.078.09h4.912c2.085.037 4.185 0 6.27.217.653.075.563.15 0 .255-.913.16-1.84.235-2.767.225-4.26 0-8.513-.045-12.81-.105h-7.875l-8.678.045-5.332.045c-2.693.038-5.4.068-8.078.143-2.085.045-4.095.195-6.18.24-.465 0-.907 0-1.372-.045-1.703-.12-2.213-.225-2.565-.45l-.233-.12c-.165-.09.548-.308 1.793-.218.915.045 1.837.09 2.752.075l2.835-.12c1.913-.067 3.855-.12 5.805-.157l8.693-.128v.008ZM34.647 85.5c2.795-.03 5.593-.08 8.393-.15l3.067-.113 10.793-.33 4.785-.225a57.325 57.325 0 0 1 6.112-.172c.638.06.555.135 0 .33a8.995 8.995 0 0 1-2.677.607c-4.148.255-8.303.458-12.495.518-2.513.045-5.115.21-7.68.292-2.82.105-5.648.173-8.468.24l-5.25.083H15.965c-1.665-.09-2.19-.293-2.498-.615a1.073 1.073 0 0 1-.202-.225c-.128-.225.57-.375 1.755-.308 3.54.158 7.312.143 11.1.158 2.805 0 5.632 0 8.46-.075l.067-.015Z" fill="#FF6702"/><path d="m54.867 33.622 3.952.255c.48 0 .96 0 1.44.06 1.695.113 3.39.24 5.085.33.75.045 1.5.083 2.25.105.96 0 1.92.053 2.88.165.3.038.255.165 0 .308a3.33 3.33 0 0 1-1.275.345c-.982.06-1.965.105-2.947.127-.983.023-1.965-.052-2.955-.12-1.185-.09-2.415-.045-3.623-.067a355.656 355.656 0 0 1-3.997-.128l-2.43-.09c-1.238 0-2.483-.097-3.75-.09-.953 0-1.898.09-2.843.15l-.63.045c-.75 0-1.02-.127-1.17-.502a1.998 1.998 0 0 1-.105-.27c-.06-.293.27-.533.84-.638a31.492 31.492 0 0 1 5.25-.172c1.32 0 2.655.105 3.99.157l.038.03Z" fill="#8B5FCF"/><path d="M50.42 79.844s-.307 4.71.165 4.726c.473.015 5.393.307 5.25-.143-.142-.45-4.38-.623-4.5-1.118-.165-.75-.112-2.542-.195-3.262-.232-2.04-.855-1.65-.855-1.65l.135 1.447Z" fill="#FF6702"/><path d="m70.453 70.702-2.25-.067h-.818c-.967 0-1.935-.106-2.902-.158H63.2a5.584 5.584 0 0 1-1.65-.127c-.165-.045-.135-.218 0-.398.192-.221.46-.363.75-.397a28.691 28.691 0 0 1 3.308 0c.667.052 1.365 0 2.047 0h5.753c.547 0 1.08-.136 1.62-.196l.36-.044c.457 0 .6.082.675.442 0 .082.045.165.052.247a.548.548 0 0 1-.48.57c-.967.176-1.95.257-2.932.24h-2.25v-.112Zm-41.149.45-2.31-.142h-.862l-3-.225h-1.335a6.613 6.613 0 0 1-1.718-.135c-.172-.045-.142-.255 0-.465a1.097 1.097 0 0 1 .75-.458 20.078 20.078 0 0 1 3.48.143c.711.055 1.425.072 2.138.052l2.362.075h3.653c.57 0 1.125-.12 1.68-.187.127 0 .247-.045.367-.053.465 0 .615.113.75.428.027.07.047.143.06.217.045.24-.135.45-.472.57a12.28 12.28 0 0 1-3.12.285c-.788 0-1.575-.045-2.37-.067l-.053-.038Z" fill="#8B5FCF"/><path d="M34.287 35.887s-.217 0-.427-1.192c0 0-3.638 0-5.175-.15a4.297 4.297 0 0 1-1.38-.398l7.072-.352-.09 2.092ZM35.455 16.5l9.892.067c1.2 0 2.407-.037 3.608 0 4.245.038 8.482.165 12.75.263 1.882.045 3.75.06 5.647.075 1.2 0 2.4 0 3.608.097 1.218.02 2.432.163 3.622.428.75.187.6.36-.067.585-.428.157-.87.27-1.32.337a9.41 9.41 0 0 1-1.86.158c-4.86 0-9.755-.08-14.685-.24-2.948-.105-6 0-9.038 0H31.494c-3.097 0-6.202 0-9.277.06-2.392.045-4.725.195-7.095.277-.525 0-1.027.06-1.56.068a10.863 10.863 0 0 1-2.07-.12 2.327 2.327 0 0 1-.57-.218 1.658 1.658 0 0 1-.353-.322 3.356 3.356 0 0 1-.247-.278c-.075-.142.098-.255.45-.42.203-.099.42-.165.645-.195.31-.055.623-.09.938-.105 4.192-.36 8.64-.465 13.14-.517l9.982-.053-.022.053Z" fill="#FF6702"/><path d="M27.064 48.93c-3.697 0-7.395-.15-11.107-.398-.675-.052-1.357-.097-2.033-.165-.347.05-.7.063-1.05.038a14.075 14.075 0 0 1-1.057-.173c-.12 0-.232-.045-.36-.082a3.618 3.618 0 0 1-.428-.135 1.725 1.725 0 0 1-.884-.63 3.284 3.284 0 0 1-.225-.645 3.825 3.825 0 0 1-.098-.503c0-.285-.06-.57-.082-.847a40.898 40.898 0 0 1-.09-1.643c0-1.087-.053-2.175-.068-3.255 0-2.167 0-4.327.038-6.48.037-2.152 0-4.23.037-6.322v-4.035c-.005-1.354.12-2.705.375-4.035.232-.833.488-.69.893.037.255.478.461.98.614 1.5a7.15 7.15 0 0 1 .27 2.093c-.074 5.452-.337 10.912-.562 16.417a43.957 43.957 0 0 0 0 3.585c0 .61.03 1.21.09 1.8 0 .3.045.593.075.878 0 .127.045.292.06.375a.78.78 0 0 0 .037.142c.053.058.12.1.195.12l.57.143.66.112c.23.023.457.07.676.143.44.129.898.194 1.357.195l1.373.075c.922.045 1.845.075 2.774.097 1.845.045 3.698.06 5.558.068h6.848c3.457-.053 6.937-.098 10.372-.218 2.67-.105 5.25-.307 7.92-.472.578 0 1.148-.083 1.733-.113 2.182-.097 2.88.045 3.352.525.112.098.215.206.308.323.21.352-.668.69-2.25.832-4.703.405-9.675.57-14.678.66a503.1 503.1 0 0 1-11.183.068l-.03-.075Zm48.212 15.105V56.61c0-.9-.06-1.808-.06-2.708V44.34c0-1.418 0-2.835-.06-4.245V37.38c.007-.46.04-.917.098-1.373.09-.45.187-.907.322-1.372.24-.623.375-.405.563.082.112.248.232.578.397.99.085.213.155.43.21.653a4.6 4.6 0 0 1 .068.75l.067 2.73v2.752c0 1.838-.045 3.683-.12 5.535-.082 2.25.053 4.5.083 6.75l.06 7.5v11.588c0 1.8.127 3.562.135 5.355v1.185c-.083 1.5-.263 1.995-.795 2.25a2.203 2.203 0 0 1-.315.142c-.3 0-.518-.54-.503-1.567-.067-3.09-.165-6.435-.195-9.75 0-2.483-.052-4.988-.075-7.5l.12-.045ZM35.156 84.36c3.33 0 6.66-.023 9.99-.068l3.645-.105c4.29-.06 8.58-.127 12.863-.24 1.905-.052 3.81-.142 5.7-.24l3.637-.195h2.745c.308 0 .608.075.923.128.315.052.675.195.592.262a3.833 3.833 0 0 1-.577.3 8.415 8.415 0 0 1-3.173.915c-2.467.143-4.942.278-7.425.383-2.482.105-4.965.12-7.5.12-3 0-6.097.202-9.157.285-3.36.09-6.723.152-10.088.187h-6.21c-3.135 0-6.285 0-9.405-.075-2.422 0-4.8 0-7.23-.142-.532-.045-1.072-.06-1.605-.12a5.497 5.497 0 0 1-2.25-.593 1.11 1.11 0 0 1-.6-1.245.75.75 0 0 1 .278-.367c.187-.098.367.112.555.105.114-.015.23-.015.345 0 .18 0 .427.052.75.09 2.032.225 4.177.315 6.382.367 2.205.053 4.433.105 6.683.12 3.345.038 6.705.06 10.065 0l.067.128ZM9.492 64.957l.113-6.847v-.36a1.928 1.928 0 0 1 .052-.518c.075-.307.075-.705.39-.87.298-.181.63-.299.975-.345l.263-.045h.502c3-.195 5.918-.067 8.858 0h3.9a32.698 32.698 0 0 1 4.987.218c.533.097.42.352 0 .6a4.89 4.89 0 0 1-2.197.57c-3.36 0-6.75 0-10.125-.075-1.013 0-2.04 0-3.075.067-.518 0-1.035.068-1.538.113-.502.045-1.155.135-1.185.15a.442.442 0 0 0-.142 0c-.045 0 0 .09 0 .135v2.272l-.038 3.435-.037 4.238c0 2.13-.053 4.282-.045 6.405 0 1.65.105 3.27.12 4.905v1.08c0 1.357-.24 1.792-.645 2.04a1.44 1.44 0 0 1-.293.165c-.315.097-.532-.465-.607-1.433-.143-2.887-.173-5.94-.18-9V64.98l-.053-.023Z" fill="#FF6702"/><path d="m54.883 32.46 4.687.18h1.71l6 .255 2.678.09a16.963 16.963 0 0 1 3.45.285c.202.052.307.172.255.217a1.32 1.32 0 0 1-.323.173 4.326 4.326 0 0 1-1.5.383l-3.457.194c-1.163.053-2.325 0-3.495-.067-1.395-.083-2.85 0-4.275.038h-7.628c-1.5 0-2.947-.045-4.402 0-1.133 0-2.25.157-3.383.224-.247 0-.495.045-.75.045-.945 0-1.267-.217-1.41-.75a1.495 1.495 0 0 1-.067-.352c0-.383.345-.638.997-.75a44.594 44.594 0 0 1 6.158-.263l4.717.075.038.023Zm-19.229-5.693c0 1.268-.045 2.543-.045 3.818 0 .465.037.93 0 1.395-.045 1.642-.09 3.285-.09 4.927 0 .75 0 1.463.075 2.183.091.949.048 1.905-.128 2.842-.075.3-.292.218-.532 0a2.453 2.453 0 0 1-.623-1.2 18.509 18.509 0 0 1-.277-2.805c0-.945-.053-1.897 0-2.857 0-1.148-.12-2.325-.173-3.495-.067-1.29-.052-2.58-.067-3.87v-6.03c0-.93-.15-1.845-.173-2.79v-.623c.045-.795.24-1.035.75-1.11.124-.025.25-.04.375-.045.413 0 .75.353.75.87a41.01 41.01 0 0 1 .195 4.958v3.825l-.037.007ZM49.23 76.8v-3.36c0-.405-.045-.818 0-1.223 0-1.447.068-2.895.06-4.342 0-.645 0-1.29-.082-1.928a8.107 8.107 0 0 1 .127-2.505c.06-.27.27-.195.495 0 .287.29.49.654.585 1.05.15.815.235 1.64.255 2.468.045.825.06 1.665.038 2.512-.038 1.005.12 2.048.172 3.075.053 1.028.06 2.25.075 3.405v5.288c0 .817.128 1.627.15 2.467v.548c-.045.697-.217.9-.75.967-.114.008-.23.008-.345 0a.803.803 0 0 1-.75-.75 35.735 35.735 0 0 1-.165-4.35v-3.36l.135.038Z" fill="#8B5FCF"/><path d="m30.118 34.5-2.01-.06c-.24 0-.488.045-.75 0-.87 0-1.733-.075-2.61-.135h-1.163a2.835 2.835 0 0 1-1.59-.21c-.187-.105 0-.383.21-.66.09-.14.188-.275.293-.405a.518.518 0 0 1 .33-.195 15.85 15.85 0 0 1 2.857 0 9.825 9.825 0 0 0 1.815-.075l2.01-.068h1.245c.63 0 1.26 0 1.89-.097.488-.045.938-.233 1.545-.27a2.49 2.49 0 0 1 .405 0 .585.585 0 0 1 .54.885.788.788 0 0 1-.172.3l-.068.052-.037.038a1.42 1.42 0 0 0-.203.255c-.06.09-.075.127-.09.15l-.06.075a.427.427 0 0 1-.127.112c-.322.098-.65.173-.983.225-.42.053-.855.083-1.297.098h-1.995l.015-.015Zm6.045 30.128v4.455l-.127.442-.038.225v.053l-.12-.053-.06.09-.127.158a.875.875 0 0 1-.225.09 2.835 2.835 0 0 1-.525.082l-1.298.075h-.99c-2.317 0-4.62-.075-6.93-.097-1.02 0-2.047 0-3.067.052-1.3.107-2.606.117-3.908.03-.412-.052-.352-.352 0-.66a3 3 0 0 1 1.718-.705c1.327-.112 2.655-.127 3.99-.127 1.335 0 2.662 0 4.005.09 1.605.075 3.27-.053 4.897-.105h1.14c.06 0 0-.135 0-.203V57.488c0-1.298-.165-2.573-.24-3.863 0-.285-.052-.562-.06-.847 0-1.065.203-1.418.653-1.62a2.14 2.14 0 0 1 .307-.135c.345-.075.608.352.75 1.117.26 2.36.362 4.736.308 7.11v5.408l-.053-.03Z" fill="#8B5FCF"/><path d="M83.794 11.467a1.207 1.207 0 0 1 1.665.263c1.538 2.52-4.852 1.657-1.665-.263Z" stroke="#8B5FCF" stroke-width=".9" stroke-miterlimit="10"/><path d="M82.578 30.465a.975.975 0 0 1 1.35.218c1.237 2.055-3.915 1.327-1.35-.218Z" stroke="#8B5FCF" stroke-width=".75" stroke-miterlimit="10"/><path d="M61.574 9.915a.968.968 0 0 1 1.342.21c1.237 2.062-3.915 1.335-1.342-.21ZM70.13 70.17c-.84 0-1.68-.075-2.513-.09h-.915c-1.08 0-2.168-.09-3.248-.098-.478-.004-.956.019-1.432.068a5.492 5.492 0 0 1-1.853 0c-.202-.045-.165-.285 0-.555.16-.302.428-.532.75-.645a18.692 18.692 0 0 1 3.75-.18c.75.045 1.538-.075 2.303-.105.765-.03 1.695 0 2.542-.045h1.568c.795 0 1.59 0 2.377-.038.608 0 1.208-.18 1.83-.247.135 0 .27-.053.413-.06.517 0 .682.135.75.645.007.115.007.23 0 .345a.75.75 0 0 1-.563.75c-1.068.231-2.162.33-3.255.292h-2.52l.015-.037ZM30.748 35.175c-.577 0-1.162-.068-1.747-.083-.21 0-.42.038-.638 0l-2.25-.135a6.344 6.344 0 0 0-.997.038 2.998 2.998 0 0 1-1.29 0c-.263-.083.052-1.313.51-1.403a9.394 9.394 0 0 1 2.557-.082 8.089 8.089 0 0 0 1.605-.06l1.755-.045h1.088c.547 0 1.102 0 1.65-.068.218-.025.434-.067.645-.127.246-.059.497-.096.75-.113.12-.007.24-.007.36 0 .45.053.645.39.442.87a.894.894 0 0 1-.187.293l-.068.052c-.066.067-.127.14-.18.218a1.541 1.541 0 0 0-.12.195l-.052.082a.533.533 0 0 1-.113.113 3.63 3.63 0 0 1-.802.21c-.368.047-.739.075-1.11.082h-1.733l-.075-.037Z" fill="#8B5FCF"/></svg>