<svg width="96" height="96" fill="none" xmlns="http://www.w3.org/2000/svg"><path d="M30.874 52.207A10.74 10.74 0 0 1 34.226 57a9 9 0 0 1 .503 2.085c.072.63.085 1.265.037 1.897l-.165.938c-.052.315-.165.607-.247.915A9.127 9.127 0 0 1 32.41 66a10.164 10.164 0 0 1-2.625 2.002 8.775 8.775 0 0 1-4.035 1.11c-.435 0-.375-.112 0-.262a14.62 14.62 0 0 1 1.703-.585 9.262 9.262 0 0 0 6.052-4.988 7.957 7.957 0 0 0 .6-2.385 9.634 9.634 0 0 0-.195-2.497 9.877 9.877 0 0 0-2.58-4.823 9.434 9.434 0 0 0-2.76-2.002 8.039 8.039 0 0 0-2.49-.683c-.217 0-.435-.052-.645-.052h-.652a7.65 7.65 0 0 0-1.298.15 11.047 11.047 0 0 0-3.75 1.372l-.75.465c-.457.3-.75.51-.982.638-.165.085-.342.14-.525.165a.89.89 0 0 1-.188 0c-.142 0 .128-.398.75-.915a12.001 12.001 0 0 1 3.323-1.868 12.747 12.747 0 0 1 1.905-.502c.322-.068.645-.113.975-.158l1.012-.052a9 9 0 0 1 5.58 1.995l.038.082Zm45.224 18.06a15.688 15.688 0 0 1-2.595-.27 18.327 18.327 0 0 1-1.275-.27c-.21-.05-.42-.11-.63-.18l-.248-.09a.15.15 0 0 1-.067 0c-.013.25-.013.5 0 .75 0 .316.067.623.127.938.36 2.25.908 4.5 1.336 6.75.187 1.005.382 2.017.54 3a20.14 20.14 0 0 1 .314 3.915c0 .405 0 .352-.104 0-.105-.353-.098-.472-.143-.705-.045-.233-.172-.623-.21-.998-.338-2.617-.892-5.212-1.395-7.844-.293-1.583-.713-3.203-.892-4.86V69.03c.067 0 .187-.075.21-.045h.15l.06-.06c0-.075.112 0 .172 0l.135.053c.157.044.308.097.465.135.315.09.63.157.945.225.642.126 1.29.218 1.943.277 1.088.127 2.19.076 3.262-.15a10.5 10.5 0 0 0 4.5-2.017 7.41 7.41 0 0 0 1.305-1.268c.356-.51.648-1.062.87-1.643.101-.245.189-.495.262-.75.27-.99.323-1.312.518-1.5.045-.044.09-.105.127-.134.038-.03.188.36.046 1.147a7.86 7.86 0 0 1-4.328 5.7 12.04 12.04 0 0 1-2.625.96 10.15 10.15 0 0 1-2.775.323v-.016ZM33.309 90.405c-7.627 1.822-20.835.75-22.695-.818-2.115-1.837 6.09-3.337 6.09-3.337a5.745 5.745 0 0 0 5.445 3.99c4.432.165 11.16.165 11.16.165Zm34.42-.473c-4.89 1.095-18.57 2.558-21.473-.045-1.822-1.635 8.423-3 8.423-3s-1.935 1.695-1.598 2.085c.338.39 14.648.96 14.648.96ZM43.044 19.02a7.77 7.77 0 0 0-6.473 6.382 9.83 9.83 0 0 0 .113 3.623c.189.887.462 1.753.817 2.587.18.42.383.833.585 1.238l.165.307c.075.143.195.345.3.51.233.345.45.69.705 1.028l.345.667v.63c0 .045-.045.15-.105.18-.123.092-.26.165-.405.218a2.355 2.355 0 0 1-.6.142c-.264.02-.53.02-.795 0-.555 0-1.177-.075-1.657-.127a97.589 97.589 0 0 0-4.163-.398 84.13 84.13 0 0 0-6.27-.24 43.8 43.8 0 0 0-3.975.18c-.66.053-1.312.105-1.95.21a9.59 9.59 0 0 0-.945.195 4.16 4.16 0 0 0-.915.255c-.345.173-.465.293-.495.255-.03-.037.053-.232.308-.51.36-.397.793-.723 1.275-.96a8.164 8.164 0 0 1 2.092-.69 51.053 51.053 0 0 1 8.333-.397c1.387 0 2.767.082 4.14.165.69.045 1.38.082 2.07.112h.726l.263.06c.136.026.276.026.412 0l-.202-.3a2.704 2.704 0 0 0-.135-.24l-.188-.322-.24-.428a16.653 16.653 0 0 1-.81-1.785 13.091 13.091 0 0 1-.87-3.78 11.314 11.314 0 0 1 .225-3c.112-.491.25-.977.413-1.455.182-.478.4-.942.652-1.387a9.93 9.93 0 0 1 4.41-3.998 10.763 10.763 0 0 1 3.533-.9 13.12 13.12 0 0 1 3.592.113c1.82.305 3.53 1.08 4.958 2.25A9.428 9.428 0 0 1 55.26 24c.76 2.73.58 5.635-.51 8.25a16.25 16.25 0 0 1-.75 1.672 8.196 8.196 0 0 1-1.455 1.913 1.95 1.95 0 0 1-1.035.54c-.142 0-.292.082-.39.09-.3 0-.06-.923.585-2.31.458-1.043.93-2.07 1.283-3.128a13.23 13.23 0 0 0 .652-3.277 8.25 8.25 0 0 0-1.65-6A7.666 7.666 0 0 0 48 19.215a10.86 10.86 0 0 0-4.965-.15l.008-.045Zm30.593 18.69a.404.404 0 0 1 .045-.158v-.12l-.09-.06-.607-.217a21.099 21.099 0 0 0-2.543-.698c-.637-.12-1.282-.195-1.927-.285a40.266 40.266 0 0 0-6.93-.465 26.25 26.25 0 0 0-3.083.293c-1.305.172-2.572.51-3.885.615-.412 0-.442-.233-.172-.615.168-.24.37-.455.6-.638.29-.227.63-.386.99-.465a26.15 26.15 0 0 1 8.325-.585c1.665.143 3.405.165 5.1.42.93.15 1.86.323 2.782.563.458.127.923.247 1.373.412l.345.12.165.06.232.098c.306.137.6.3.878.487.065.169.117.341.157.518.007.21-.016.419-.067.622l-.21.938-.368 1.657c-.36 1.68-.75 3.36-.93 5.04a30.938 30.938 0 0 0-.202 3.885v.84c0 1.043 0 1.365-.398 1.628a1.72 1.72 0 0 1-.247.18c-.278.142-.585-.285-.75-1.11a27.04 27.04 0 0 1 .285-7.448c.277-1.845.66-3.682 1.02-5.482l.112-.03Z" fill="#8B5FCF"/><path d="M22.014 50.873a10.419 10.419 0 0 1 5.302 0 9.33 9.33 0 0 1 4.463 2.902 9.974 9.974 0 0 1 1.972 3.337 9.749 9.749 0 0 1 .488 3.346 10.068 10.068 0 0 1-.72 3.292 9.847 9.847 0 0 1-4.403 4.8 11.39 11.39 0 0 1-5.535 1.365 9.397 9.397 0 0 1-6.66-2.67c-.547-.525-.255-.66.428-.54.352.045.75.21 1.267.33.54.149 1.071.329 1.59.54a9.412 9.412 0 0 0 6.248.352 9.89 9.89 0 0 0 2.842-1.417 9.373 9.373 0 0 0 2.153-2.333 7.949 7.949 0 0 0 0-7.552 8.152 8.152 0 0 0-2.903-3.172 7.387 7.387 0 0 0-4.185-1.028c-1.872.121-3.694.66-5.332 1.575-.323.172-.63.352-.945.54l-.6.383-.675.472-.48.247a1.758 1.758 0 0 1-.375.105c-.24 0-.383-.255-.488-.554a5.136 5.136 0 0 1-.202-1.118l-.09-1.095a123.68 123.68 0 0 1-.195-3.383c-.113-2.317-.255-4.597-.195-6.922 0-.51 0-1.012.067-1.5a6.61 6.61 0 0 1 .405-2.04c.142-.316.381-.579.683-.75.104-.068.218-.12.337-.157.165 0 .218.15.248.487a8.24 8.24 0 0 1 0 1.5c-.135 1.957-.083 4.035 0 6.135.082 2.1.195 4.23.375 6.352v.465h.037l.165-.105.345-.21c.465-.277.93-.547 1.425-.75a16.051 16.051 0 0 1 3.09-1.147l.053-.082Zm16.013 37.544v-.045l-.105-.225c-.15-.315-.27-.637-.398-.952a15.194 15.194 0 0 1-.607-1.988 11.925 11.925 0 0 1-.225-4.192 10.365 10.365 0 0 1 4.297-7.058 8.85 8.85 0 0 1 2.85-1.335 10.84 10.84 0 0 1 3.06-.405c1.837.022 3.633.54 5.198 1.5a8.475 8.475 0 0 1 3.45 4.155c.635 1.673.89 3.466.75 5.25-.055.885-.222 1.76-.495 2.603-.14.424-.31.838-.51 1.237a5.645 5.645 0 0 1-.323.593l-.18.285c-.052.075-.142.225-.157.24l-.165.202c-.05.066-.106.129-.165.188-.045.045-.188.142-.045.165.163.042.328.072.495.09l.795.09 1.035.097c1.395.12 2.782.195 4.17.24 1.89.068 3.75.06 5.67 0a28.93 28.93 0 0 0 5.602-.51c.555-.135.75-.217.803-.142.052.075-.218.262-.683.487a15.096 15.096 0 0 1-4.98 1.208c-2.48.193-4.968.248-7.455.165a91.608 91.608 0 0 1-3.75-.188l-.937-.082-.75-.075c-.3 0-.6-.083-.885-.143a1.2 1.2 0 0 1-.983-.66c-.052-.105 0-.165 0-.255l.045-.247.045-.24v-.128l.173-.18.652-.795a1.12 1.12 0 0 0 .18-.262l.128-.203a7.9 7.9 0 0 0 .427-.832c.24-.6.424-1.22.548-1.853.232-1.305.232-2.64 0-3.945a8.632 8.632 0 0 0-1.095-3 6.982 6.982 0 0 0-2.318-2.25 8.94 8.94 0 0 0-6.412-.945 8.025 8.025 0 0 0-5.55 4.245 8.776 8.776 0 0 0-.907 3.428 10.697 10.697 0 0 0 .427 3.667c.132.483.298.957.495 1.418.09.24.203.465.307.697.105.233.376.705.556 1.05.088.146.14.31.15.48l.075.428v.052l-.113-.052-.053.075-.12.15a.906.906 0 0 1-.434.21c-.394.091-.792.161-1.193.21l-.915.105a80.679 80.679 0 0 1-3.278.315c-2.46.202-4.927.33-7.395.345-1.237 0-2.474 0-3.75-.098a25.99 25.99 0 0 1-1.867-.202 8.065 8.065 0 0 1-1.898-.495 4.883 4.883 0 0 1-2.25-2.205c-.465-.872-.818-1.8-1.05-2.76-.439-1.85-.69-3.74-.75-5.64a23.119 23.119 0 0 1 0-2.498c.098-3.127.45-4.11.93-4.717.096-.142.207-.273.33-.39.173-.113.255.135.323.69.085.845.122 1.693.112 2.542 0 1.65.098 3.315.203 4.98a27.5 27.5 0 0 0 .75 4.883c.397 1.5 1.133 3.06 2.108 3.51.31.134.634.232.967.292.382.075.75.135 1.2.188.825.09 1.68.135 2.543.165 2.557.067 5.167-.038 7.77-.21 1.297-.09 2.602-.195 3.9-.33l1.544-.173h.06l.023-.015Zm47.22-23.992a9.29 9.29 0 0 1-1.208 2.16 8.349 8.349 0 0 1-1.777 1.747 9 9 0 0 1-4.553 1.658c-1.15.12-2.31.083-3.45-.113a17.064 17.064 0 0 1-2.092-.517l-.3-.113h-.135v.458l.105.825c.105.577.21 1.17.337 1.755.24 1.185.525 2.362.75 3.57.323 1.672.653 3.36.87 5.055.157 1.09.227 2.19.21 3.292v.833l-.15.825c-.085.546-.2 1.087-.345 1.62-.172.66-.255.54-.352-.045-.053-.293-.09-.705-.18-1.193-.053-.255-.113-.51-.173-.75 0-.142-.052-.285-.09-.427l-.045-.443a53.415 53.415 0 0 0-.847-6.375c-.428-2.122-.908-4.267-1.268-6.502-.067-.458-.157-.9-.21-1.38l-.045-.36a3.602 3.602 0 0 1-.037-.525v-1.118l.157-.375.083-.18v-.097l.037.052c.15-.15.435-.15.75-.09s.75.233 1.088.338l.697.202c.832.233 1.683.394 2.543.48a8.43 8.43 0 0 0 4.102-.525 7.072 7.072 0 0 0 3.158-2.572 8.534 8.534 0 0 0 1.38-4.898 8.174 8.174 0 0 0-1.013-3.75 6.337 6.337 0 0 0-2.752-2.61 8.873 8.873 0 0 0-5.843-.42c-.427.09-.84.233-1.267.36-.55.198-1.112.365-1.68.503-.314.07-.642.03-.93-.113a2.181 2.181 0 0 1-.375-.187c-.165-.128-.12-.338.112-.615.354-.39.79-.697 1.275-.9a12.036 12.036 0 0 1 6.218-1.29 8.565 8.565 0 0 1 6.06 3.075 9.922 9.922 0 0 1 1.222 9.675h-.037Z" fill="#8B5FCF"/><path d="M70.885 23.663c0 .15-.225.082-.518-.098a1.213 1.213 0 0 1-.315-.315 2.238 2.238 0 0 1 0-.315c0-.06.398-.652.518-.862.11-.197.252-.374.42-.526.322-.322.622-.652.915-.967a.69.69 0 0 1 .232-.18c.304-.154.562-.384.75-.667 0-.046.075-.083.06-.158.13-.331.318-.636.555-.9.24-.158.45-.338.698-.51 0 0 0-.075.12-.067.12.007.202-.083.27-.143.087-.097.183-.188.285-.27.08-.037.162-.064.247-.082.075 0 .255.082.27.112.015.03.15.075.233.105a.212.212 0 0 1 .082 0 3.3 3.3 0 0 1 .098 1.043l-.068.195-.165.412-.337.645a.397.397 0 0 1-.173.135s-.525.832-.562.855c-.038.023-.24.308-.48.337-.045 0-.068.046-.09.075-.228.229-.48.433-.75.608-.135.098-.248.218-.368.323l-.06.052s-.082 0-.105.052c-.301.234-.589.485-.862.75-.06.068-.473.21-.533.293-.06.082-.36.008-.367.068ZM45.639 4.882c-.075-.142.127-.217.487-.247.167.004.332.037.488.097.079.075.149.158.21.248 0 .045.097.75.15.952.03.22.03.441 0 .66 0 .45-.045.9-.06 1.35-.008.1-.031.2-.068.293a2.54 2.54 0 0 0-.127 1.027c0 .06 0 .12.045.18a3.3 3.3 0 0 1 0 1.155c-.113.293-.195.6-.315.9 0 .038 0 .09-.068.128-.067.037-.142.18-.165.27-.025.14-.078.272-.157.39 0 .067-.128.127-.195.187a.24.24 0 0 1-.24 0c-.06-.06-.143 0-.21 0a.3.3 0 0 1-.083 0 3.565 3.565 0 0 1-.3-.397 1.763 1.763 0 0 1-.217-.458l-.09-.585c0-.3-.045-.607-.06-.667a.22.22 0 0 1 .052-.195c.053-.06-.075-.923-.067-.96 0-.188 0-.375.127-.548a.158.158 0 0 0 0-.112c.048-.326.123-.647.225-.96 0-.158 0-.323.045-.488 0 0 0-.052.038-.082a.66.66 0 0 0 0-.113c0-.382.135-.75.12-1.155 0-.09.21-.495.21-.6 0-.105.255-.21.225-.27Z" fill="#FF6702"/><path d="M67.218 36.307c-.907-.082-1.815-.172-2.737-.187h-1.005c-1.178 0-2.363 0-3.548.105-.517.052-1.042.105-1.56.187a16.17 16.17 0 0 1-1.995.278c-.21 0-.21-.113-.06-.285.219-.242.507-.41.825-.48a21.418 21.418 0 0 1 4.155-.45c.833 0 1.703-.075 2.557-.083.855-.007 1.883.038 2.82.12.578 0 1.156.12 1.733.188.87.135 1.732.292 2.58.495a17.1 17.1 0 0 1 1.957.532l.428.15c.51.24.645.375.668.578a.425.425 0 0 1 0 .135c0 .142-.27.135-.63 0a22.315 22.315 0 0 0-3.466-.9c-.892-.173-1.814-.278-2.73-.368l.008-.015Z" fill="#8B5FCF"/><path d="M14.542 17.19c-.15 0-.098-.217.067-.517.089-.13.204-.24.338-.323.105-.01.21-.01.315 0 .06 0 .675.338.9.443.207.096.396.225.562.382l1.058.825a.976.976 0 0 1 .195.233c.183.293.423.548.705.75.045 0 .082.082.165.075.339.19.637.444.877.75.143.292.308.547.465.817 0 .045.075.053.053.135-.023.083.037.233.09.308.087.103.158.22.21.345a.81.81 0 0 1 0 .27c0 .09-.195.247-.233.255-.037.007-.135.127-.202.21l-.075.075a3.49 3.49 0 0 1-.96-.203l-.473-.345a8.247 8.247 0 0 0-.54-.382c-.06-.03-.075-.113-.105-.173-.03-.06-.75-.532-.75-.555-.112-.142-.292-.217-.315-.45 0-.045 0-.06-.067-.082a4.625 4.625 0 0 1-.608-.713c-.105-.127-.225-.225-.337-.337-.113-.113 0-.06-.038-.083-.037-.022 0-.075-.06-.097A8.9 8.9 0 0 0 15 18c-.067-.052-.247-.457-.337-.51-.09-.052-.053-.292-.12-.3Z" fill="#FF6702"/></svg>