<svg width="32" height="32" fill="none" xmlns="http://www.w3.org/2000/svg"><path d="M16 4C9.373 4 4 9.373 4 16c0 2.217.604 4.293 1.653 6.075l-1.536 5.752 6.034-1.35A11.942 11.942 0 0 0 16 28c6.627 0 12-5.373 12-12S22.627 4 16 4Zm0 2.182c5.422 0 9.818 4.396 9.818 9.818S21.422 25.818 16 25.818a9.774 9.774 0 0 1-5.493-1.679l-3.348.75.852-3.195A9.766 9.766 0 0 1 6.181 16c0-5.422 4.397-9.818 9.819-9.818Zm-4.106 4.22c-.2 0-.522.074-.796.371-.269.299-1.036 1.016-1.036 2.48 0 1.46 1.06 2.876 1.209 3.07.149.201 2.057 3.298 5.08 4.49 2.508.986 3.02.79 3.568.74.545-.047 1.758-.717 2.005-1.41.247-.694.247-1.289.17-1.414-.075-.12-.27-.196-.568-.345-.298-.15-1.759-.869-2.033-.967-.27-.098-.47-.15-.665.148-.2.298-.767.968-.944 1.163-.172.2-.344.224-.642.075-.298-.149-1.255-.462-2.39-1.476-.883-.786-1.48-1.759-1.652-2.056-.172-.297-.019-.46.13-.608.136-.13.299-.345.448-.517.144-.176.194-.297.293-.497.103-.195.05-.372-.024-.521-.073-.15-.65-1.62-.916-2.205-.223-.493-.455-.508-.669-.513-.173-.009-.373-.008-.568-.008Z" fill="#4E4D4B"/></svg>